<?xml version="1.0" encoding="UTF-8"?>
<svg width="491px" height="302px" viewBox="0 0 491 302" version="1.1" xmlns="http://www.w3.org/2000/svg" xmlns:xlink="http://www.w3.org/1999/xlink">
    <!-- Generator: Sketch 46.2 (44496) - http://www.bohemiancoding.com/sketch -->
    <title>BOUNTY_DRAWING</title>
    <desc>Created with Sketch.</desc>
    <defs></defs>
    <g id="✅️---LATEST" stroke="none" stroke-width="1" fill="none" fill-rule="evenodd">
        <g id="beta_reduxSüp3r_J" transform="translate(-634.000000, -4720.000000)">
            <g id="INCENTIVIZED_SECTION" transform="translate(-11.000000, 4189.000000)">
                <g id="BOUNTY_DRAWING" transform="translate(643.000000, 530.000000)">
                    <g id="Saucer" transform="translate(14.659747, 55.287462)" stroke="#8C9EAE">
                        <path d="M40.3631701,37.6134557 C37.1380257,38.0981651 32.8378333,37.32263 28.4399092,35.383792 C24.0419851,33.4449541 20.6213775,30.6336391 18.7644762,27.8223242" id="Stroke-1"></path>
                        <path d="M56.0979652,17.3525994 C65.0892767,23.5568807 70.1713223,29.858104 68.607616,33.6388379 C66.1643248,39.3584098 49.4522132,37.32263 31.1763953,28.9856269 C12.9005774,20.6486239 4.4408921e-16,9.30642202 2.44329117,3.58685015 C4.00699751,-0.193883792 11.9232609,-0.581651376 22.2828154,2.03577982" id="Stroke-3"></path>
                        <path d="M2.54102281,3.39296636 L0.684121527,7.85229358 C-1.75916964,13.5718654 11.0436761,24.9140673 29.319494,33.2510703 C47.5953119,41.5880734 64.3074235,43.6238532 66.7507147,37.9042813 L68.607616,33.541896" id="Stroke-5"></path>
                        <path d="M50.1363348,11.3422018 C50.2340664,11.4391437 50.3317981,11.5360856 50.4295297,11.6330275" id="Stroke-7"></path>
                        <path d="M50.4295297,11.6330275 C55.316112,15.3168196 57.9548665,19.1944954 56.97755,21.6180428 C55.316112,25.4957187 45.4452157,24.7201835 34.9879295,19.8730887 C24.5306433,15.0259939 17.2007698,8.14311927 18.8622078,4.26544343 C19.9372559,1.74495413 24.5306433,1.16330275 30.5900054,2.5204893" id="Stroke-9"></path>
                        <path d="M50.9181879,14.3474006 C49.9408715,16.6740061 44.0769727,16.1892966 37.8221473,13.2810398 C31.5673219,10.3727829 27.2671294,6.30122324 28.2444459,3.97461774 C29.2217624,1.64801223 35.0856612,2.13272171 41.3404866,5.04097859 C47.5953119,7.85229358 51.8955044,12.0207951 50.9181879,14.3474006 Z" id="Stroke-11"></path>
                    </g>
                    <g id="Marks-design" transform="translate(171.030382, 113.452599)" stroke="#FFFFFF">
                        <path d="M70.1713223,24.0415902 L71.637297,23.6538226" id="Stroke-1_1_"></path>
                        <polyline id="Stroke-2" points="62.1573273 24.5262997 65.7733982 30.5366972 79.1626338 32.4755352 80.1399503 28.2100917"></polyline>
                        <polyline id="Stroke-3_1_" points="62.1573273 24.5262997 70.1713223 23.8477064 72.4191502 26.4651376 69.7803957 31.1183486"></polyline>
                        <polyline id="Stroke-4" stroke-linejoin="bevel" points="79.1626338 32.5724771 90.0108466 54.1905199 92.7473327 55.3538226 86.4925073 57.8743119 77.7943908 58.2620795 77.3057325 57.1957187 78.8694389 55.935474 50.3317981 29.6642202 10.7504811 23.6538226 0.195463293 20.0669725 0.29319494 15.8015291 8.9913115 14.2504587 48.6703601 21.8119266 49.8431398 1.74495413 48.4748968 0.872477064 48.3771651 0.096941896 51.8955044 0.48470948 58.3457931 3.00519878 57.4662083 3.87767584 71.637297 23.6538226 77.1102693 24.6232416"></polyline>
                        <polyline id="Stroke-6" stroke-linejoin="bevel" points="68.9985426 46.9198777 69.7803957 65.5327217 70.9531755 66.9868502 64.0142286 68.3440367 57.4662083 66.9868502 57.7594032 65.8235474 60.0072311 64.7571865 49.3544816 32.1847095 54.3387956 33.1541284"></polyline>
                        <polyline id="Stroke-9_1_" stroke-linejoin="bevel" points="49.0612866 12.3116208 44.6633625 9.98501529 45.2497524 9.40336391 37.5289523 8.24006116 33.1310282 8.82171254 33.3264915 9.6941896 34.7924662 10.0819572 45.640679 21.3272171"></polyline>
                        <polyline id="Stroke-10" points="0.195463293 20.0669725 11.2391394 28.3070336 50.4295297 35.383792"></polyline>
                        <path d="M71.930492,20.4547401 L94.4087707,25.7865443 C94.4087707,25.7865443 96.8520619,27.4345566 97.92711,29.2764526 C99.3930847,31.7969419 98.5134999,35.0929664 98.5134999,35.0929664 L94.9951606,38.4859327 L83.3650946,40.6186544 L85.1242643,37.2256881 L80.1399503,28.2100917 L72.4191502,26.4651376 L65.6756666,30.6336391" id="Stroke-12" stroke-linejoin="bevel"></path>
                        <polyline id="Stroke-14" points="77.1102693 24.6232416 71.930492 20.4547401 71.0509072 22.4905199"></polyline>
                        <polyline id="Stroke-16" stroke-linejoin="bevel" points="54.7297222 48.8587156 30.980932 43.5269113 30.1013472 42.0727829 30.3945421 38.7767584 52.286431 41.4911315"></polyline>
                        <path d="M30.1013472,42.0727829 L53.7524057,45.4657492" id="Stroke-18" stroke-linejoin="bevel"></path>
                        <polyline id="Stroke-20" stroke-linejoin="bevel" points="43.4905828 19.0006116 27.5603244 15.3168196 26.7784712 14.3474006 26.8762028 12.6993884 38.7017321 14.2504587"></polyline>
                        <path d="M26.7784712,14.3474006 L41.2427549,16.5770642" id="Stroke-22" stroke-linejoin="bevel"></path>
                    </g>
                    <g id="Marks-design-Copy" transform="translate(357.697827, 189.067278)" stroke="#FFFFFF">
                        <path d="M70.1713223,24.0415902 L71.637297,23.6538226" id="Stroke-1_1_"></path>
                        <polyline id="Stroke-2" points="62.1573273 24.5262997 65.7733982 30.5366972 79.1626338 32.4755352 80.1399503 28.2100917"></polyline>
                        <polyline id="Stroke-3_1_" points="62.1573273 24.5262997 70.1713223 23.8477064 72.4191502 26.4651376 69.7803957 31.1183486"></polyline>
                        <polyline id="Stroke-4" stroke-linejoin="bevel" points="79.1626338 32.5724771 90.0108466 54.1905199 92.7473327 55.3538226 86.4925073 57.8743119 77.7943908 58.2620795 77.3057325 57.1957187 78.8694389 55.935474 50.3317981 29.6642202 10.7504811 23.6538226 0.195463293 20.0669725 0.29319494 15.8015291 8.9913115 14.2504587 48.6703601 21.8119266 49.8431398 1.74495413 48.4748968 0.872477064 48.3771651 0.096941896 51.8955044 0.48470948 58.3457931 3.00519878 57.4662083 3.87767584 71.637297 23.6538226 77.1102693 24.6232416"></polyline>
                        <polyline id="Stroke-6" stroke-linejoin="bevel" points="68.9985426 46.9198777 69.7803957 65.5327217 70.9531755 66.9868502 64.0142286 68.3440367 57.4662083 66.9868502 57.7594032 65.8235474 60.0072311 64.7571865 49.3544816 32.1847095 54.3387956 33.1541284"></polyline>
                        <polyline id="Stroke-9_1_" stroke-linejoin="bevel" points="49.0612866 12.3116208 44.6633625 9.98501529 45.2497524 9.40336391 37.5289523 8.24006116 33.1310282 8.82171254 33.3264915 9.6941896 34.7924662 10.0819572 45.640679 21.3272171"></polyline>
                        <polyline id="Stroke-10" points="0.195463293 20.0669725 11.2391394 28.3070336 50.4295297 35.383792"></polyline>
                        <path d="M71.930492,20.4547401 L94.4087707,25.7865443 C94.4087707,25.7865443 96.8520619,27.4345566 97.92711,29.2764526 C99.3930847,31.7969419 98.5134999,35.0929664 98.5134999,35.0929664 L94.9951606,38.4859327 L83.3650946,40.6186544 L85.1242643,37.2256881 L80.1399503,28.2100917 L72.4191502,26.4651376 L65.6756666,30.6336391" id="Stroke-12" stroke-linejoin="bevel"></path>
                        <polyline id="Stroke-14" points="77.1102693 24.6232416 71.930492 20.4547401 71.0509072 22.4905199"></polyline>
                        <polyline id="Stroke-16" stroke-linejoin="bevel" points="54.7297222 48.8587156 30.980932 43.5269113 30.1013472 42.0727829 30.3945421 38.7767584 52.286431 41.4911315"></polyline>
                        <path d="M30.1013472,42.0727829 L53.7524057,45.4657492" id="Stroke-18" stroke-linejoin="bevel"></path>
                        <polyline id="Stroke-20" stroke-linejoin="bevel" points="43.4905828 19.0006116 27.5603244 15.3168196 26.7784712 14.3474006 26.8762028 12.6993884 38.7017321 14.2504587"></polyline>
                        <path d="M26.7784712,14.3474006 L41.2427549,16.5770642" id="Stroke-22" stroke-linejoin="bevel"></path>
                    </g>
                    <g id="Jacks-design" transform="translate(45.295100, 171.202327) rotate(-8.000000) translate(-45.295100, -171.202327) translate(4.795100, 135.702327)" stroke="#FFFFFF">
                        <path d="M71.4734048,26.7975427 L73.0371112,26.7975427" id="Stroke-1_2_"></path>
                        <polyline id="Stroke-2_1_" points="79.4873999 36.8794998 66.0004326 33.001824 63.1662149 26.3128332"></polyline>
                        <polygon id="Stroke-3_2_" points="52.4157337 31.6446375 11.0752472 18.1697139 0.911155901 13.0317934 1.69300908 8.76634999 10.6843206 8.37858241 63.1662149 26.3128332 71.4734048 26.7975427 73.3303061 29.7057995 70.0074301 34.0681849"></polygon>
                        <polyline id="Stroke-5_1_" stroke-linejoin="bevel" points="52.1225388 30.190509 56.6181945 66.6406619 54.1749034 67.4161971 53.7839768 68.5794998 60.2342655 70.8091634 67.4664073 70.4213959 66.4890908 68.7733836 69.5187719 53.9412735 77.8259619 46.4767475 80.562448 31.5476956 78.3146201 28.6394387 72.9393795 26.7975427 64.6321896 18.1697139 56.1295363 5.76115121 57.1068528 4.98561604 50.949759 1.59264968 46.25864 0.526288827 46.25864 1.301824 48.7019311 2.56206864 51.1452223 22.0473897"></polyline>
                        <polyline id="Stroke-8" stroke-linejoin="bevel" points="54.5658299 49.0941787 34.1399158 42.8898974 31.9898196 39.3999891 32.7716727 36.3947904 53.3930502 41.8235365"></polyline>
                        <polyline id="Stroke-9_2_" points="50.6565641 17.4911206 36.7786702 11.8684907 34.921769 8.76634999 35.4104272 6.43974448 49.8747109 11.7715488"></polyline>
                        <polyline id="Stroke-10_1_" points="0.911155901 13.0317934 11.2707105 23.0168087 52.9043919 37.0733836"></polyline>
                        <path d="M66.0004326,33.001824 L73.4280378,29.8027414" id="Stroke-12_1_" stroke-linejoin="bevel"></path>
                        <path d="M31.9898196,39.3999891 L54.0771717,45.7012124" id="Stroke-13" stroke-linejoin="bevel"></path>
                        <path d="M34.921769,8.76634999 L50.1679058,14.4859219" id="Stroke-14_1_"></path>
                    </g>
                    <text id="WINNER" font-family="HelveticaNeue, Helvetica Neue" font-size="11" font-weight="normal" letter-spacing="0.300000012" fill="#8C9EAE">
                        <tspan x="389.144603" y="10"> WINNER</tspan>
                    </text>
                    <text id="ROUND-1" font-family="HelveticaNeue, Helvetica Neue" font-size="11" font-weight="normal" letter-spacing="0.300000012" fill="#8C9EAE">
                        <tspan x="28.2281059" y="10">ROUND 1</tspan>
                    </text>
                    <text id="ROUND-2" font-family="HelveticaNeue, Helvetica Neue" font-size="11" font-weight="normal" letter-spacing="0.300000012" fill="#8C9EAE">
                        <tspan x="208.686354" y="10">ROUND 2</tspan>
                    </text>
                    <g id="Andrews-design" transform="translate(228.401809, 272.560237) rotate(-14.000000) translate(-228.401809, -272.560237) translate(184.901809, 237.060237)" stroke="#8C9EAE">
                        <path d="M65.7170161,28.3948081 L67.3784541,28.3948081" id="Stroke-1_3_"></path>
                        <polyline id="Stroke-2_2_" points="74.7083276 39.5431262 59.657654 35.2776828 56.5302413 27.8131568"></polyline>
                        <polyline id="Stroke-3_3_" points="56.5302413 27.8131568 65.7170161 28.3948081 67.8671123 31.6908326 64.1533097 36.4409855"></polyline>
                        <polyline id="Stroke-4_1_" points="23.3992131 44.0993953 21.8355067 44.1963372 21.9332383 45.1657562 34.3451575 48.6556644 33.661036 47.2984779 31.6086714 28.2978663 44.1183222 32.1755421 48.6139779 65.4266124 45.5842969 65.2327286 45.5842969 66.6868571 60.7327021 70.2737072 59.5599223 68.4318112 63.5669198 58.6406797 72.8514263 50.3036766 75.8811073 33.6296705 73.4378162 30.3336461 67.3784541 28.3948081 58.1916793 18.7975604 48.6139779 4.93486931 49.7867577 4.06239225 39.2317398 0.669425885 39.2317398 1.54190295 40.5999829 2.12355433 43.043274 23.1599458 30.5336233 18.7006185 29.0676486 6.29205585 30.2404283 5.80734637 19.6854105 2.60826381 19.6854105 3.48074087 20.8581902 4.25627604 22.1287016 16.7617806 1.70278748 12.3993953 0.823202661 17.1495482 22.4218966 25.8743189 23.3992131 44.0993953"></polyline>
                        <path d="M32.3905245,35.5685085 L45.0956386,39.8339519" id="Stroke-6_1_"></path>
                        <path d="M0.823202661,17.1495482 L22.8128232,32.272484" id="Stroke-7_1_"></path>
                        <path d="M59.657654,35.2776828 L67.8671123,31.6908326" id="Stroke-9_3_" stroke-linejoin="bevel"></path>
                        <polyline id="Stroke-10_2_" stroke-linejoin="bevel" points="72.655963 50.4006185 86.8270518 45.0688143 86.4361252 37.2165207 75.8811073 33.6296705"></polyline>
                        <polyline id="Stroke-12_2_" stroke-linejoin="bevel" points="73.4378162 30.3336461 83.1132492 33.9204962 86.4361252 37.2165207"></polyline>
                    </g>
                    <path d="M100.174938,88.7324159 L151.972711,133.325688" id="Line-2" stroke="#979797" stroke-linecap="square"></path>
                    <path d="M100.174938,134.295107 L151.972711,178.888379" id="Line-2-Copy-2" stroke="#979797" stroke-linecap="square" transform="translate(126.073824, 156.591743) scale(1, -1) translate(-126.073824, -156.591743) "></path>
                    <ellipse id="Oval-3" fill="#F5B23A" cx="151.484052" cy="133.810398" rx="2.9319494" ry="2.90825688"></ellipse>
                    <ellipse id="Oval-3-Copy" fill="#0086CB" cx="99.6862796" cy="88.2477064" rx="2.9319494" ry="2.90825688"></ellipse>
                    <ellipse id="Oval-3-Copy-2" fill="#0086CB" cx="99.6862796" cy="179.373089" rx="2.9319494" ry="2.90825688"></ellipse>
                    <path d="M288.308358,164.347095 L340.106131,208.940367" id="Line-2-Copy-4" stroke="#979797" stroke-linecap="square"></path>
                    <path d="M288.308358,209.909786 L340.106131,254.503058" id="Line-2-Copy-3" stroke="#979797" stroke-linecap="square" transform="translate(314.207244, 232.206422) scale(1, -1) translate(-314.207244, -232.206422) "></path>
                    <ellipse id="Oval-3-Copy-4" fill="#0086CB" cx="287.8197" cy="163.862385" rx="2.9319494" ry="2.90825688"></ellipse>
                    <ellipse id="Oval-3-Copy-3" fill="#0086CB" cx="287.8197" cy="254.987768" rx="2.9319494" ry="2.90825688"></ellipse>
                    <path d="M340.661074,212.816514 C342.280345,212.816514 343.593023,211.362385 343.593023,209.908257 C343.593023,208.454128 342.280345,207 340.661074,207 C339.041803,207 337.729124,208.302071 337.729124,209.908257 C337.729124,211.514443 339.041803,212.816514 340.661074,212.816514 Z" id="Oval-3" fill="#F5B23A"></path>
                    <g id="Group-16" transform="translate(244.329117, 97.941896)">
                        <g id="Group-14" transform="translate(0.000000, 0.000000)" fill="#F5B23A">
                            <g id="Group-13">
                                <ellipse id="Oval-2" cx="15.4395208" cy="16.1793739" rx="15.4395208" ry="15.314757"></ellipse>
                            </g>
                        </g>
                        <text id="Wins-+2" font-family="HelveticaNeue, Helvetica Neue" font-size="10" font-weight="normal" letter-spacing="0.272727281" fill="#FFFFFF">
                            <tspan x="36.6801977" y="16.3883792">Wins</tspan>
                            <tspan x="36.6801977" y="28.3883792">+2</tspan>
                        </text>
                    </g>
                    <g id="Group-16-Copy" transform="translate(249.560997, 107.495413)">
                        <g id="Group-14" transform="translate(0.000000, -0.000000)">
                            <g id="Group-13">
                                <ellipse id="Oval-2" fill="#F5B23A" cx="195.897769" cy="84.1793739" rx="15.4395208" ry="15.314757"></ellipse>
                                <text id="MTX" font-family="Helvetica" font-size="10" font-weight="normal" fill="#FFFFFF">
                                    <tspan x="185.498982" y="88">MTX</tspan>
                                </text>
                                <text id="MTX" font-family="Helvetica" font-size="10" font-weight="normal" fill="#FFFFFF">
                                    <tspan x="0" y="10">MTX</tspan>
                                </text>
                            </g>
                        </g>
                        <text id="Wins-+5" font-family="HelveticaNeue, Helvetica Neue" font-size="10" font-weight="normal" letter-spacing="0.272727281" fill="#FFFFFF">
                            <tspan x="217.138446" y="84.3883792">Wins</tspan>
                            <tspan x="217.138446" y="96.3883792">+5</tspan>
                        </text>
                    </g>
                </g>
            </g>
        </g>
    </g>
</svg>