<?xml version="1.0" encoding="UTF-8"?>
<svg width="500px" height="500px" viewBox="0 0 500 500" version="1.1" xmlns="http://www.w3.org/2000/svg" xmlns:xlink="http://www.w3.org/1999/xlink">
    <!-- Generator: Sketch 46.2 (44496) - http://www.bohemiancoding.com/sketch -->
    <title>Matryx_White_Mark</title>
    <desc>Created with Sketch.</desc>
    <defs></defs>
    <g id="Page-1" stroke="none" stroke-width="1" fill="none" fill-rule="evenodd">
        <g id="Matryx_White_Mark" fill="#FFFFFF">
            <g id="Matryx-Mark-Black-RGB-margin" transform="translate(96.000000, 77.000000)">
                <path d="M76.4141883,59.211284 L63.4895096,56.0898102 L63.4895096,7.32711755 L129.366563,34.6162236 L76.4141883,59.211284 Z M76.676898,302.92101 L126.856049,318.077551 L63.4895096,338.948215 L63.4895096,306.310017 L76.676898,302.92101 Z M6.17088329,43.2552649 L57.3186263,8.54076402 L57.3186263,338.522347 L6.17088329,316.505115 L6.17088329,43.2552649 Z M58.6425554,0.300291703 L1.32472766,39.2048368 L0,41.6804884 L0,318.472221 L1.84136346,321.229444 L59.1591913,345.902503 L61.389429,346 L137.838752,320.809036 L137.838752,315.075414 L77.6558709,296.908156 L75.9590377,296.873057 L63.4895096,300.077989 L63.4895096,62.2999986 L76.0029557,65.3224151 L78.0702975,65.1196207 L138.156559,37.1792327 L138.156559,31.6819446 L61.6098177,0 L58.6425554,0.300291703 L58.6425554,0.300291703 Z" id="Fill-1"></path>
                <path d="M302.828318,316.505115 L251.681374,338.522347 L251.681374,8.54076402 L302.828318,43.2552649 L302.828318,316.505115 Z M232.323901,302.92101 L245.51049,306.310017 L245.51049,338.948215 L182.143951,318.077551 L232.323901,302.92101 Z M232.585812,59.211284 L179.633437,34.6162236 L245.51049,7.32711755 L245.51049,56.0898102 L232.585812,59.211284 Z M250.357445,0.300291703 L247.390981,0 L170.843441,31.6819446 L170.843441,37.1792327 L230.929703,65.1196207 L232.997044,65.3224151 L245.51049,62.2999986 L245.51049,300.077989 L233.040962,296.873057 L231.344129,296.908156 L171.16045,315.075414 L171.16045,320.809036 L247.610571,346 L249.840809,345.902503 L307.158637,321.229444 L309,318.472221 L309,41.6804884 L307.675272,39.2048368 L250.357445,0.300291703 L250.357445,0.300291703 Z" id="Fill-2"></path>
            </g>
        </g>
    </g>
</svg>