<?xml version="1.0" encoding="UTF-8"?>
<svg width="721px" height="691px" viewBox="0 0 721 691" version="1.1" xmlns="http://www.w3.org/2000/svg" xmlns:xlink="http://www.w3.org/1999/xlink">
    <!-- Generator: Sketch 46.2 (44496) - http://www.bohemiancoding.com/sketch -->
    <title>Matryx_White_Vertical_Logotype</title>
    <desc>Created with Sketch.</desc>
    <defs></defs>
    <g id="Page-1" stroke="none" stroke-width="1" fill="none" fill-rule="evenodd">
        <g id="Matryx_White_Vertical_Logotype" fill="#FFFFFF">
            <g id="Matryx-Logo-Black-RGB-margin" transform="translate(132.000000, 107.000000)">
                <polyline id="Fill-1" points="43.6570739 459.554838 12.2929046 388 0 388 0 474 8.27889495 474 8.27889495 400.245467 41.5722111 474 45.3919691 474 77.8901905 398.81955 77.8901905 474 86 474 86 388 74.8576628 388 43.6570739 459.554838"></polyline>
                <polyline id="Fill-2" points="135.702479 388 98 474 107.193834 474 139.530957 398.30239 158.863009 444.038472 132.483735 444.038472 129.211699 451.707192 161.474369 451.707192 171.289694 474 181 474 144.890043 388 135.702479 388"></polyline>
                <polyline id="Fill-3" points="174 395.923857 203.483531 395.923857 203.483531 474 212.654305 474 212.654305 395.923857 242 395.923857 242 388 174 388 174 395.923857"></polyline>
                <path d="M292.272587,428.821405 C299.954295,424.359995 301.039728,414.012675 300.960787,409.833514 C300.916581,407.458566 300.550296,405.046972 299.755365,402.800673 C299.079633,400.892762 298.093665,399.079973 296.832195,397.487058 C295.677294,396.02825 294.30136,394.737857 292.787279,393.647065 C291.363981,392.620207 289.821482,391.754747 288.215041,391.038988 C286.758587,390.389503 285.248453,389.856192 283.710691,389.42658 C282.447641,389.073379 281.176698,388.798927 279.873389,388.63831 C277.79883,388.38257 275.330358,388.017673 273.033187,388.005198 C271.10309,387.993503 255.082888,388.005198 255.082888,388.005198 L255.082888,395.759256 C255.082888,395.759256 274.369651,395.808377 276.411844,395.878549 C278.622181,395.955739 280.753576,396.48827 282.793401,397.306949 C284.463784,397.977486 286.067067,398.839048 287.487998,399.940755 C289.094439,401.185927 290.450638,402.748434 291.328457,404.578376 C292.203908,406.40286 292.566246,408.423048 292.518092,410.434658 C292.207066,423.30273 281.524037,424.693704 277.487015,425.522519 C271.8996,426.66789 255,426.001251 255,426.001251 L255.127094,434.054712 L293.803245,474 L304,474 L265.634086,433.961148 C265.620666,433.917485 282.543949,434.471848 292.272587,428.821405" id="Fill-4"></path>
                <polyline id="Fill-5" points="303 388 334.641995 436.270872 334.641995 474 344 474 344 435.993065 313.9063 388 303 388"></polyline>
                <polyline id="Fill-6" points="342 424.546283 346.782178 432 376 388 366.4863 388 342 424.546283"></polyline>
                <polyline id="Fill-7" points="425.023525 428.704171 453.995202 388 443.522599 388 419.937937 422.442534 395.211483 388 384.997696 388 414.692166 428.905071 382 474 392.285593 474 419.5 435.716043 446.558171 474 457 474 425.023525 428.704171"></polyline>
                <path d="M138.668018,54.41775 L126.039683,51.5510735 L126.039683,6.73411765 L190.410595,31.8140294 L138.668018,54.41775 Z M138.925064,278.406662 L187.957206,292.335529 L126.039683,311.518412 L126.039683,281.521191 L138.925064,278.406662 Z M70.0316712,39.7546765 L120.010557,7.84711765 L120.010557,311.125588 L70.0316712,290.892838 L70.0316712,39.7546765 Z M121.303422,0.275911765 L65.2954096,36.0322059 L64,38.3073088 L64,292.697956 L65.7993213,295.232603 L121.807333,317.911147 L123.988406,318 L198.689509,294.846794 L198.689509,289.576412 L139.881987,272.881412 L138.225186,272.846338 L126.039683,275.794853 L126.039683,57.2563676 L138.268451,60.0365294 L140.286643,59.8471324 L199,34.1686324 L199,29.1157059 L124.202187,0 L121.303422,0.275911765 L121.303422,0.275911765 Z" id="Fill-8"></path>
                <path d="M359.970646,290.892838 L309.992421,311.125588 L309.992421,7.84711765 L359.970646,39.7546765 L359.970646,290.892838 Z M291.074656,278.406662 L303.960523,281.521191 L303.960523,311.518412 L242.040665,292.335529 L291.074656,278.406662 Z M291.331712,54.41775 L239.587184,31.8140294 L303.960523,6.73411765 L303.960523,51.5510735 L291.331712,54.41775 Z M308.696963,0.275911765 L305.798088,0 L231,29.1157059 L231,34.1686324 L289.713025,59.8471324 L291.733839,60.0365294 L303.960523,57.2563676 L303.960523,275.794853 L291.77456,272.846338 L290.117697,272.881412 L231.307958,289.576412 L231.307958,294.846794 L306.014422,318 L308.193032,317.911147 L364.200611,295.232603 L366,292.697956 L366,38.3073088 L364.707087,36.0322059 L308.696963,0.275911765 L308.696963,0.275911765 Z" id="Fill-9"></path>
            </g>
        </g>
    </g>
</svg>