<?xml version="1.0" encoding="UTF-8"?>
<svg width="1024px" height="300px" viewBox="0 0 1024 300" version="1.1" xmlns="http://www.w3.org/2000/svg" xmlns:xlink="http://www.w3.org/1999/xlink">
    <!-- Generator: Sketch 46.2 (44496) - http://www.bohemiancoding.com/sketch -->
    <title>Matryx_Full_Logotype_White</title>
    <desc>Created with Sketch.</desc>
    <defs></defs>
    <g id="Page-1" stroke="none" stroke-width="1" fill="none" fill-rule="evenodd">
        <g id="Matryx_Full_Logotype_White" fill="#FFFFFF">
            <g id="Matryx-Logo-Black-RGB-margin" transform="translate(61.000000, 67.000000)">
                <polyline id="Fill-1" points="257.023813 131.492422 208.154061 20 189 20 189 154 201.899674 154 201.899674 39.0801464 253.775306 154 259.727022 154 310.363785 36.8583682 310.363785 154 323 154 323 20 305.638684 20 257.023813 131.492422"></polyline>
                <polyline id="Fill-2" points="401.052075 20 342 154 356.399981 154 407.048487 36.052561 437.327605 107.315758 396.01067 107.315758 390.885794 119.264694 441.417686 119.264694 456.791086 154 472 154 415.442236 20 401.052075 20"></polyline>
                <polyline id="Fill-3" points="461 32.4386126 507.393203 32.4386126 507.393203 155 521.823686 155 521.823686 32.4386126 568 32.4386126 568 20 461 20 461 32.4386126"></polyline>
                <path d="M644.810543,84.0801121 C656.725029,77.0767364 658.408558,60.8338496 658.286119,54.2735397 C658.217554,50.5454232 657.649439,46.7597817 656.416484,43.2336151 C655.368411,40.2386378 653.839155,37.3929809 651.882588,34.8924747 C650.091313,32.602486 647.957211,30.5768679 645.608841,28.864578 C643.401276,27.2526511 641.008828,25.8940795 638.517206,24.770504 C636.258216,23.7509633 633.915969,22.9137894 631.530867,22.2393993 C629.571852,21.6849552 627.600593,21.2541289 625.579134,21.0019976 C622.361451,20.6005458 618.532801,20.0277426 614.969841,20.0081596 C611.976221,19.9898005 587.12856,20.0081596 587.12856,20.0081596 L587.12856,32.1802272 C587.12856,32.1802272 617.042725,32.2573353 620.210208,32.3674898 C623.638484,32.4886597 626.944323,33.3246096 630.108132,34.609745 C632.69893,35.662332 635.185655,37.014784 637.389548,38.744209 C639.88117,40.6988386 641.984663,43.1516112 643.346179,46.0241947 C644.704021,48.8882106 645.266014,52.0594351 645.191326,55.2171962 C644.708919,75.4170759 628.139322,77.6005821 621.877819,78.9016286 C613.211625,80.6995941 587,79.6531268 587,79.6531268 L587.197126,92.2951867 L647.184624,155 L663,155 L603.493685,92.1483141 C603.47287,92.0797736 629.721227,92.9499938 644.810543,84.0801121" id="Fill-4"></path>
                <polyline id="Fill-5" points="663 20 712.392382 95.2127533 712.392382 154 727 154 727 94.7798918 680.024468 20 663 20"></polyline>
                <polyline id="Fill-6" points="724 77.3112158 731.454571 89 777 20 762.169821 20 724 77.3112158"></polyline>
                <polyline id="Fill-7" points="853.116699 83.4227782 898.312516 20 881.975255 20 845.183181 73.6662743 806.609913 20 790.676406 20 836.999779 83.7358081 786 154 802.045524 154 844.5 94.348253 886.710746 154 903 154 853.116699 83.4227782"></polyline>
                <path d="M35.9512678,28.577875 L29.8709586,27.0724191 L29.8709586,3.53647059 L60.8643604,16.7073676 L35.9512678,28.577875 Z M36.0750306,146.207272 L59.6830993,153.522118 L29.8709586,163.596147 L29.8709586,147.84289 L36.0750306,146.207272 Z M2.904138,20.8774559 L26.968046,4.12097059 L26.968046,163.389853 L2.904138,152.764478 L2.904138,20.8774559 Z M27.5905363,0.144897059 L0.623715713,18.9225735 L0,20.1173603 L0,153.712449 L0.8663399,155.043537 L27.8331605,166.953338 L28.8833066,167 L64.8505043,154.840926 L64.8505043,152.073147 L36.5357715,143.305647 L35.7380526,143.287228 L29.8709586,144.835662 L29.8709586,30.0685956 L35.758884,31.5286176 L36.7306061,31.4291544 L65,17.9439044 L65,15.2903235 L28.9862381,0 L27.5905363,0.144897059 L27.5905363,0.144897059 Z" id="Fill-8"></path>
                <path d="M143.096978,152.764478 L119.033388,163.389853 L119.033388,4.12097059 L143.096978,20.8774559 L143.096978,152.764478 Z M109.924835,146.207272 L116.129141,147.84289 L116.129141,163.596147 L86.3158758,153.522118 L109.924835,146.207272 Z M110.048602,28.577875 L85.1345701,16.7073676 L116.129141,3.53647059 L116.129141,27.0724191 L110.048602,28.577875 Z M118.409649,0.144897059 L117.013894,0 L81,15.2903235 L81,17.9439044 L109.269234,31.4291544 L110.242219,31.5286176 L116.129141,30.0685956 L116.129141,144.835662 L110.261825,143.287228 L109.464076,143.305647 L81.1482759,152.073147 L81.1482759,154.840926 L117.118055,167 L118.167015,166.953338 L145.133627,155.043537 L146,153.712449 L146,20.1173603 L145.377486,18.9225735 L118.409649,0.144897059 L118.409649,0.144897059 Z" id="Fill-9"></path>
            </g>
        </g>
    </g>
</svg>