<?xml version="1.0" encoding="UTF-8"?>
<svg width="721px" height="691px" viewBox="0 0 721 691" version="1.1" xmlns="http://www.w3.org/2000/svg" xmlns:xlink="http://www.w3.org/1999/xlink">
    <!-- Generator: Sketch 46.2 (44496) - http://www.bohemiancoding.com/sketch -->
    <title>Matryx_Black_Vertical_Logotype</title>
    <desc>Created with Sketch.</desc>
    <defs></defs>
    <g id="Page-1" stroke="none" stroke-width="1" fill="none" fill-rule="evenodd">
        <g id="Matryx_Black_Vertical_Logotype" fill="#0A0B09">
            <g id="Matryx-Logo-Black-RGB-margin" transform="translate(132.000000, 139.000000)">
                <polyline id="Fill-1" points="43.6570739 427.554838 12.2929046 356 0 356 0 442 8.27889495 442 8.27889495 368.245467 41.5722111 442 45.3919691 442 77.8901905 366.81955 77.8901905 442 86 442 86 356 74.8576628 356 43.6570739 427.554838"></polyline>
                <polyline id="Fill-2" points="135.702479 356 98 442 107.193834 442 139.530957 366.30239 158.863009 412.038472 132.483735 412.038472 129.211699 419.707192 161.474369 419.707192 171.289694 442 181 442 144.890043 356 135.702479 356"></polyline>
                <polyline id="Fill-3" points="174 363.923857 203.483531 363.923857 203.483531 442 212.654305 442 212.654305 363.923857 242 363.923857 242 356 174 356 174 363.923857"></polyline>
                <path d="M292.272587,396.821405 C299.954295,392.359995 301.039728,382.012675 300.960787,377.833514 C300.916581,375.458566 300.550296,373.046972 299.755365,370.800673 C299.079633,368.892762 298.093665,367.079973 296.832195,365.487058 C295.677294,364.02825 294.30136,362.737857 292.787279,361.647065 C291.363981,360.620207 289.821482,359.754747 288.215041,359.038988 C286.758587,358.389503 285.248453,357.856192 283.710691,357.42658 C282.447641,357.073379 281.176698,356.798927 279.873389,356.63831 C277.79883,356.38257 275.330358,356.017673 273.033187,356.005198 C271.10309,355.993503 255.082888,356.005198 255.082888,356.005198 L255.082888,363.759256 C255.082888,363.759256 274.369651,363.808377 276.411844,363.878549 C278.622181,363.955739 280.753576,364.48827 282.793401,365.306949 C284.463784,365.977486 286.067067,366.839048 287.487998,367.940755 C289.094439,369.185927 290.450638,370.748434 291.328457,372.578376 C292.203908,374.40286 292.566246,376.423048 292.518092,378.434658 C292.207066,391.30273 281.524037,392.693704 277.487015,393.522519 C271.8996,394.66789 255,394.001251 255,394.001251 L255.127094,402.054712 L293.803245,442 L304,442 L265.634086,401.961148 C265.620666,401.917485 282.543949,402.471848 292.272587,396.821405" id="Fill-4"></path>
                <polyline id="Fill-5" points="303 356 334.641995 404.270872 334.641995 442 344 442 344 403.993065 313.9063 356 303 356"></polyline>
                <polyline id="Fill-6" points="342 392.546283 346.782178 400 376 356 366.4863 356 342 392.546283"></polyline>
                <polyline id="Fill-7" points="425.023525 396.704171 453.995202 356 443.522599 356 419.937937 390.442534 395.211483 356 384.997696 356 414.692166 396.905071 382 442 392.285593 442 419.5 403.716043 446.558171 442 457 442 425.023525 396.704171"></polyline>
                <path d="M138.668018,22.41775 L126.039683,19.5510735 L126.039683,-25.2658824 L190.410595,-0.185970588 L138.668018,22.41775 Z M138.925064,246.406662 L187.957206,260.335529 L126.039683,279.518412 L126.039683,249.521191 L138.925064,246.406662 Z M70.0316712,7.75467647 L120.010557,-24.1528824 L120.010557,279.125588 L70.0316712,258.892838 L70.0316712,7.75467647 Z M121.303422,-31.7240882 L65.2954096,4.03220588 L64,6.30730882 L64,260.697956 L65.7993213,263.232603 L121.807333,285.911147 L123.988406,286 L198.689509,262.846794 L198.689509,257.576412 L139.881987,240.881412 L138.225186,240.846338 L126.039683,243.794853 L126.039683,25.2563676 L138.268451,28.0365294 L140.286643,27.8471324 L199,2.16863235 L199,-2.88429412 L124.202187,-32 L121.303422,-31.7240882 L121.303422,-31.7240882 Z" id="Fill-8"></path>
                <path d="M359.970646,258.892838 L309.992421,279.125588 L309.992421,-24.1528824 L359.970646,7.75467647 L359.970646,258.892838 Z M291.074656,246.406662 L303.960523,249.521191 L303.960523,279.518412 L242.040665,260.335529 L291.074656,246.406662 Z M291.331712,22.41775 L239.587184,-0.185970588 L303.960523,-25.2658824 L303.960523,19.5510735 L291.331712,22.41775 Z M308.696963,-31.7240882 L305.798088,-32 L231,-2.88429412 L231,2.16863235 L289.713025,27.8471324 L291.733839,28.0365294 L303.960523,25.2563676 L303.960523,243.794853 L291.77456,240.846338 L290.117697,240.881412 L231.307958,257.576412 L231.307958,262.846794 L306.014422,286 L308.193032,285.911147 L364.200611,263.232603 L366,260.697956 L366,6.30730882 L364.707087,4.03220588 L308.696963,-31.7240882 L308.696963,-31.7240882 Z" id="Fill-9"></path>
            </g>
        </g>
    </g>
</svg>