<?xml version="1.0" encoding="UTF-8"?>
<svg width="27px" height="25px" viewBox="0 0 27 25" version="1.1" xmlns="http://www.w3.org/2000/svg" xmlns:xlink="http://www.w3.org/1999/xlink">
    <!-- Generator: Sketch 46.1 (44463) - http://www.bohemiancoding.com/sketch -->
    <title>Icon- Wallet</title>
    <desc>Created with Sketch.</desc>
    <defs></defs>
    <g id="Page-1" stroke="none" stroke-width="1" fill="none" fill-rule="evenodd">
        <g id="FAQ" transform="translate(-196.000000, -516.000000)" fill="#000000">
            <g id="Token-Wallet-Management" transform="translate(185.000000, 502.000000)">
                <g id="Icon--Wallet" transform="translate(11.000000, 14.000000)">
                    <g id="Group" fill-rule="nonzero">
                        <path d="M23.9772727,25 L3.29545455,25 C1.81818182,25 0.568181818,23.75 0.568181818,22.1590909 L0.568181818,9.65909091 C0.568181818,8.75 1.02272727,7.84090909 1.70454545,7.38636364 L4.09090909,5.68181818 C4.31818182,5.45454545 4.65909091,5.56818182 4.88636364,5.79545455 C5.11363636,6.02272727 5,6.36363636 4.77272727,6.59090909 L2.38636364,8.29545455 C1.93181818,8.52272727 1.70454545,9.09090909 1.70454545,9.65909091 L1.70454545,22.1590909 C1.70454545,23.0681818 2.38636364,23.8636364 3.29545455,23.8636364 L23.9772727,23.8636364 C24.8863636,23.8636364 25.5681818,23.0681818 25.5681818,22.1590909 L25.5681818,9.65909091 C25.5681818,9.09090909 25.3409091,8.52272727 24.8863636,8.29545455 L22.6136364,6.59090909 C22.3863636,6.36363636 22.2727273,6.02272727 22.5,5.79545455 C22.7272727,5.56818182 23.0681818,5.45454545 23.2954545,5.68181818 L25.5681818,7.38636364 C26.25,7.95454545 26.7045455,8.75 26.7045455,9.65909091 L26.7045455,22.1590909 C26.7045455,23.6363636 25.4545455,25 23.9772727,25 Z" id="Shape"></path>
                        <path d="M8.97727273,3.40909091 C8.75,3.40909091 8.63636364,3.29545455 8.52272727,3.06818182 C8.29545455,2.84090909 8.40909091,2.5 8.63636364,2.27272727 L10.2272727,1.13636364 C12.2727273,-0.340909091 15,-0.340909091 17.1590909,1.13636364 L18.75,2.27272727 C18.9772727,2.5 19.0909091,2.84090909 18.8636364,3.06818182 C18.6363636,3.29545455 18.1818182,3.40909091 17.9545455,3.18181818 L16.3636364,2.04545455 C14.7727273,0.909090909 12.5,0.909090909 10.9090909,2.04545455 L9.31818182,3.18181818 C9.20454545,3.29545455 9.09090909,3.40909091 8.97727273,3.40909091 Z" id="Shape"></path>
                        <path d="M13.6363636,17.0454545 C12.5,17.0454545 11.3636364,16.7045455 10.4545455,16.0227273 L3.06818182,11.1363636 C2.84090909,10.9090909 2.72727273,10.5681818 2.95454545,10.3409091 C3.06818182,10.1136364 3.40909091,10.1136364 3.75,10.2272727 L11.1363636,15.1136364 C12.7272727,16.1363636 14.6590909,16.1363636 16.25,15.1136364 L23.6363636,10.2272727 C23.8636364,10 24.2045455,10.1136364 24.4318182,10.3409091 C24.6590909,10.5681818 24.5454545,10.9090909 24.3181818,11.1363636 L16.9318182,16.0227273 C15.9090909,16.8181818 14.7727273,17.0454545 13.6363636,17.0454545 Z" id="Shape"></path>
                        <path d="M22.7272727,11.9318182 C22.3863636,11.9318182 22.1590909,11.7045455 22.1590909,11.3636364 L22.1590909,3.40909091 L5.11363636,3.40909091 L5.11363636,11.3636364 C5.11363636,11.7045455 4.88636364,11.9318182 4.54545455,11.9318182 C4.20454545,11.9318182 3.97727273,11.5909091 3.97727273,11.3636364 L3.97727273,2.84090909 C3.97727273,2.5 4.20454545,2.27272727 4.54545455,2.27272727 L22.7272727,2.27272727 C23.0681818,2.27272727 23.2954545,2.5 23.2954545,2.84090909 L23.2954545,11.3636364 C23.2954545,11.5909091 23.0681818,11.9318182 22.7272727,11.9318182 Z" id="Shape"></path>
                        <path d="M18.1818182,14.7727273 L8.52272727,14.7727273 C8.18181818,14.7727273 7.95454545,14.4318182 7.95454545,14.2045455 C7.95454545,13.9772727 8.18181818,13.6363636 8.52272727,13.6363636 L18.1818182,13.6363636 C18.5227273,13.6363636 18.75,13.8636364 18.75,14.2045455 C18.75,14.5454545 18.5227273,14.7727273 18.1818182,14.7727273 Z" id="Shape"></path>
                    </g>
                    <text id="M" font-family="Helvetica" font-size="6" font-weight="normal">
                        <tspan x="11.2272727" y="10.5454545">M</tspan>
                    </text>
                </g>
            </g>
        </g>
    </g>
</svg>