<?xml version="1.0" encoding="UTF-8"?>
<svg width="28px" height="32px" viewBox="0 0 28 32" version="1.1" xmlns="http://www.w3.org/2000/svg" xmlns:xlink="http://www.w3.org/1999/xlink">
    <!-- Generator: Sketch 46.1 (44463) - http://www.bohemiancoding.com/sketch -->
    <title>Fill 220 Copy</title>
    <desc>Created with Sketch.</desc>
    <defs></defs>
    <g id="Page-1" stroke="none" stroke-width="1" fill="none" fill-rule="evenodd">
        <g id="Icon-Set" transform="translate(-242.000000, -34.000000)" fill="#000000">
            <path d="M265,42 C263.935,42 263,40.065 263,39.026 L263,36.031 L263,36.029 L268,42 L265,42 L265,42 Z M268,58 C268,59.019 267.05,60 266,60 L251,60 C249.95,60 249,59.019 249,58 L249,38 C249,36.981 249.95,36 251,36 L261,36 C260.984,38.304 261,40.025 261,40.025 C261,42.103 262.87,44 265,44 L268,44 L268,58 L268,58 Z M261,64 L246,64 C244.95,64 244,63.019 244,62 L244,42 C244,40.981 244.855,40.032 245.905,40.032 L247,40 L247,58 C247,60.059 248.884,62 251,62 L263,62 C263,63.019 262.049,64 261,64 L261,64 Z M263,34 L251,34 C248.884,34 247,35.941 247,38 L245.845,38.027 C243.729,38.027 242,39.941 242,42 L242,62 C242,64.059 243.884,66 246,66 L261,66 C263.116,66 265,64.059 265,62 L266,62 C268.116,62 270,60.059 270,58 L270,42.023 L263,34 L263,34 Z M263,48.018 L254,48.018 C253.448,48.018 253,48.465 253,49.017 C253,49.568 253.448,50.016 254,50.016 L263,50.016 C263.552,50.016 264,49.568 264,49.017 C264,48.465 263.552,48.018 263,48.018 L263,48.018 Z M263,53.013 L254,53.013 C253.448,53.013 253,53.46 253,54.012 C253,54.563 253.448,55.011 254,55.011 L263,55.011 C263.552,55.011 264,54.563 264,54.012 C264,53.46 263.552,53.013 263,53.013 L263,53.013 Z" id="Fill-220-Copy"></path>
        </g>
    </g>
</svg>