<?xml version="1.0" encoding="UTF-8"?>
<svg width="164px" height="164px" viewBox="0 0 164 164" version="1.1" xmlns="http://www.w3.org/2000/svg" xmlns:xlink="http://www.w3.org/1999/xlink">
    <!-- Generator: Sketch 46.2 (44496) - http://www.bohemiancoding.com/sketch -->
    <title>upto50</title>
    <desc>Created with Sketch.</desc>
    <defs></defs>
    <g id="✅️---LATEST" stroke="none" stroke-width="1" fill="none" fill-rule="evenodd">
        <g id="Withtokenbar" transform="translate(-947.000000, -1344.000000)">
            <g id="Presalesection" transform="translate(131.000000, 1224.000000)">
                <g id="Icons" transform="translate(0.000000, 120.000000)">
                    <g id="upto50" transform="translate(816.000000, 0.000000)">
                        <circle id="Oval-6-Copy" fill="#0086CB" cx="81.9" cy="81.9" r="81.9"></circle>
                        <g id="Page-1" transform="translate(20.800000, 49.400000)">
                            <path d="M46.7003426,24.7 L44.113871,24.7 L26.0085693,6.57667888 C24.9748428,5.54580161 23.358298,5.54580161 22.3245715,6.57667888 L4.02356018,24.7 L1.17757919,24.7 C0.143852685,24.7 -0.438965596,23.2822213 0.403362009,22.506699 L22.3245715,0.773157954 C23.358298,-0.257719318 24.9748428,-0.257719318 26.0085693,0.773157954 L47.7340691,22.5703228 C48.5125971,23.342406 47.9935784,24.7 46.7003426,24.7 Z" id="Fill-1" fill="#90C1F1"></path>
                            <path d="M46.6984836,33.1845396 L35.6913793,33.1845396 L35.6913793,62.3487116 C35.6913793,63.8051527 34.5241946,65 33.1014724,65 L14.9721241,65 C13.5494019,65 12.3822172,63.8051527 12.3822172,62.3487116 L12.3822172,33.1845396 L1.1791432,33.1845396 C0.144043744,33.1845396 -0.439548611,31.7280985 0.403897737,30.9300607 L7.00643374,24.1710429 L22.2868845,8.59472369 C23.3219839,7.5350921 24.9406757,7.5350921 25.9757752,8.59472369 L41.1275939,24.1710429 L46.8910001,30.1364417 L47.7335831,30.9989942 C48.5131451,31.7280985 47.9934371,33.1845396 46.6984836,33.1845396 Z" id="Fill-2" fill="#F4F4F4"></path>
                        </g>
                        <text id="50%" font-family=".SFNSDisplay, .SF NS Display" font-size="31.2" font-weight="normal" fill="#F4F4F4">
                            <tspan x="82.5550781" y="93.7">50%</tspan>
                        </text>
                    </g>
                </g>
            </g>
        </g>
    </g>
</svg>