<?xml version="1.0" encoding="UTF-8"?>
<svg width="16px" height="27px" viewBox="0 0 16 27" version="1.1" xmlns="http://www.w3.org/2000/svg" xmlns:xlink="http://www.w3.org/1999/xlink">
    <!-- Generator: Sketch 46.1 (44463) - http://www.bohemiancoding.com/sketch -->
    <title>Icon- Troubleshooting</title>
    <desc>Created with Sketch.</desc>
    <defs></defs>
    <g id="Page-1" stroke="none" stroke-width="1" fill="none" fill-rule="evenodd">
        <g id="FAQ" transform="translate(-201.000000, -603.000000)" fill-rule="nonzero" fill="#000000">
            <g id="Troubleshooting" transform="translate(185.000000, 590.000000)">
                <g id="Icon--Troubleshooting" transform="translate(16.000000, 13.000000)">
                    <path d="M15.9819233,15.9299041 C16.0405146,15.6845835 15.9526276,15.4085977 15.7768537,15.2246072 L5.2597132,4.21584148 C5.05464361,4.00118588 4.7323914,3.93985571 4.43943484,4.06251605 C4.17577394,4.18517639 4,4.46116216 4,4.76781302 L4,20.3456764 C4,20.5909971 4.11718262,20.8363178 4.32225222,20.9896432 C4.52732181,21.1429687 4.79098271,21.1429687 4.9960523,21.0509734 L8.21857445,19.6710446 L10.9430705,26.5400237 C11.0602531,26.8466746 11.323914,27 11.6168705,27 C11.7047575,27 11.7926445,26.9693349 11.9098271,26.9386698 L14.6636188,25.7427315 C15.0444623,25.5894061 15.2202362,25.1294298 15.0737579,24.7307837 L12.3492619,17.8618045 L15.5717841,16.4818757 C15.7768537,16.3898804 15.923332,16.1752248 15.9819233,15.9299041 Z M11.0895487,16.7578614 C10.9137748,16.8498567 10.7672965,16.972517 10.6794095,17.1871726 C10.5915226,17.3711632 10.5915226,17.5858188 10.6794095,17.7698093 L13.4039055,24.6387884 L11.9977141,25.2520901 L9.27321806,18.383111 C9.1853311,18.1991205 9.06814847,18.045795 8.86307888,17.9537998 C8.77519191,17.9231347 8.68730495,17.8924696 8.57012232,17.8924696 C8.4529397,17.8924696 8.36505273,17.9231347 8.27716576,17.9537998 L5.40619148,19.2110683 L5.40619148,6.63838323 L13.9019317,15.531258 L11.0895487,16.7578614 Z" id="Shape"></path>
                    <path d="M5,3 C5.56,3 6,2.67 6,2.25 L6,0.75 C6,0.33 5.56,0 5,0 C4.44,0 4,0.33 4,0.75 L4,2.25 C4,2.67 4.44,3 5,3 Z" id="Shape"></path>
                    <path d="M2.59808612,2.7641791 L1.20933014,2.09253731 C0.821770335,1.90447761 0.337320574,2.0119403 0.111244019,2.33432836 C-0.114832536,2.65671642 0.014354067,3.05970149 0.401913876,3.24776119 L1.79066986,3.91940299 C1.91985646,3.97313433 2.04904306,4 2.17822967,4 C2.46889952,4 2.72727273,3.89253731 2.88875598,3.65074627 C3.11483254,3.38208955 2.98564593,2.95223881 2.59808612,2.7641791 Z" id="Shape"></path>
                    <path d="M7.82177033,4 C7.95095694,4 8.11244019,3.97313433 8.20933014,3.91940299 L9.59808612,3.24776119 C9.98564593,3.05970149 10.1148325,2.65671642 9.88875598,2.33432836 C9.66267943,2.0119403 9.17822967,1.90447761 8.79066986,2.09253731 L7.40191388,2.7641791 C7.01435407,2.95223881 6.88516746,3.35522388 7.11124402,3.67761194 C7.27272727,3.89253731 7.53110048,4 7.82177033,4 Z" id="Shape"></path>
                    <path d="M1.79066986,6.08509296 L0.401913876,6.74999124 C0.014354067,6.93616275 -0.114832536,7.33510172 0.111244019,7.6542529 C0.272727273,7.86702034 0.531100478,8 0.821770335,8 C0.950956938,8 1.11244019,7.97340407 1.20933014,7.92021221 L2.59808612,7.25531393 C2.98564593,7.06914241 3.11483254,6.67020344 2.88875598,6.35105227 C2.66267943,6.03190109 2.17822967,5.89892144 1.79066986,6.08509296 Z" id="Shape"></path>
                </g>
            </g>
        </g>
    </g>
</svg>