<?xml version="1.0" encoding="UTF-8"?>
<svg width="18px" height="29px" viewBox="0 0 18 29" version="1.1" xmlns="http://www.w3.org/2000/svg" xmlns:xlink="http://www.w3.org/1999/xlink">
    <!-- Generator: Sketch 46.1 (44463) - http://www.bohemiancoding.com/sketch -->
    <title>Icon- Pre-Sale</title>
    <desc>Created with Sketch.</desc>
    <defs></defs>
    <g id="Page-1" stroke="none" stroke-width="1" fill="none" fill-rule="evenodd">
        <g id="FAQ" transform="translate(-200.000000, -692.000000)" fill-rule="nonzero" fill="#000000">
            <g id="Pre-Sale" transform="translate(184.000000, 678.000000)">
                <g id="Icon--Pre-Sale" transform="translate(16.000000, 14.000000)">
                    <path d="M17.5593407,11.7593407 C17.7505495,11.4725275 17.7505495,11.0901099 17.5274725,10.8032967 C17.3043956,10.5164835 16.921978,10.4208791 16.6032967,10.5483516 L10.6758242,12.9065934 L13.4802198,1.27472527 C13.5758242,0.892307692 13.3846154,0.50989011 13.0340659,0.350549451 C12.6835165,0.191208791 12.2692308,0.318681319 12.0461538,0.637362637 L0.254945055,18.3879121 C0.0637362637,18.6747253 0.0637362637,19.0571429 0.286813187,19.343956 C0.50989011,19.6307692 0.892307692,19.7263736 1.21098901,19.567033 L6.88351648,17.3043956 L4.27032967,28.0120879 C4.17472527,28.3945055 4.36593407,28.7769231 4.71648352,28.9362637 C4.81208791,28.9681319 4.93956044,29 5.03516484,29 C5.29010989,29 5.54505495,28.8725275 5.67252747,28.6494505 L17.5593407,11.7593407 Z M8.82747253,16.1571429 C8.89120879,15.8703297 8.7956044,15.5516484 8.57252747,15.3604396 C8.41318681,15.232967 8.25384615,15.1692308 8.06263736,15.1692308 C7.96703297,15.1692308 7.87142857,15.2010989 7.77582418,15.232967 L3.02747253,17.1450549 L10.9307692,5.32197802 L8.7956044,14.0857143 C8.73186813,14.3725275 8.82747253,14.6912088 9.05054945,14.8824176 C9.27362637,15.0736264 9.59230769,15.1373626 9.87912088,15.0098901 L14.7549451,13.0659341 L6.85164835,24.2835165 L8.82747253,16.1571429 Z" id="Shape"></path>
                </g>
            </g>
        </g>
    </g>
</svg>