<?xml version="1.0" encoding="UTF-8"?>
<svg width="14px" height="14px" viewBox="0 0 14 14" version="1.1" xmlns="http://www.w3.org/2000/svg" xmlns:xlink="http://www.w3.org/1999/xlink">
    <!-- Generator: Sketch 46.2 (44496) - http://www.bohemiancoding.com/sketch -->
    <title>Download</title>
    <desc>Created with Sketch.</desc>
    <defs></defs>
    <g id="✅️---LATEST" stroke="none" stroke-width="1" fill="none" fill-rule="evenodd">
        <g id="PressKit" transform="translate(-516.000000, -660.000000)" fill="#4EB1DE">
            <g id="Vertical" transform="translate(410.000000, 463.000000)">
                <g id="Download" transform="translate(106.000000, 197.000000)">
                    <path d="M4.08147847,8.0549145 C4.98149341,9.00579855 5.88150836,9.9575711 6.78071557,10.9084551 C6.84694957,10.9786475 6.9250976,11.0035258 7.00001471,10.9994386 C7.07493181,11.0042366 7.15307985,10.9786475 7.21931384,10.9084551 C8.11932879,9.9575711 9.01934373,9.00579855 9.91855095,8.0549145 C10.0849437,7.87916711 9.9888236,7.58897954 9.69925182,7.58897954 C9.32143536,7.58897954 8.94442663,7.58897954 8.56661017,7.58897954 C8.56661017,6.15012548 8.56661017,4.71180452 8.56661017,3.27277275 C8.56661017,3.12421378 8.42545907,3 8.25664316,3 C7.41882355,3 6.58120587,3 5.74257852,3 C5.57396455,3 5.43261152,3.12421378 5.43261152,3.27277275 C5.43261152,4.71180452 5.43261152,6.15012548 5.43261152,7.58897954 C5.05479506,7.58897954 4.67778633,7.58897954 4.29996987,7.58897954 C4.01120582,7.58897954 3.91508575,7.8784563 4.08147847,8.0549145 Z" id="Fill-1"></path>
                    <path d="M7,14 C10.8660533,14 14,10.8660533 14,7 C14,3.13394667 10.8660533,0 7,0 C3.13394667,0 0,3.13394667 0,7 C0,10.8660533 3.13394667,14 7,14 Z M7,1.12 C10.2476267,1.12 12.88,3.75237333 12.88,7 C12.88,10.2470667 10.2476267,12.88 7,12.88 C3.75293333,12.88 1.12,10.2470667 1.12,7 C1.12,3.75237333 3.75293333,1.12 7,1.12 Z" id="Fill-2"></path>
                </g>
            </g>
        </g>
    </g>
</svg>