<?xml version="1.0" encoding="UTF-8"?>
<svg width="32px" height="31px" viewBox="0 0 32 31" version="1.1" xmlns="http://www.w3.org/2000/svg" xmlns:xlink="http://www.w3.org/1999/xlink">
    <!-- Generator: Sketch 46.1 (44463) - http://www.bohemiancoding.com/sketch -->
    <title>Fill 179 Copy</title>
    <desc>Created with Sketch.</desc>
    <defs></defs>
    <g id="Page-1" stroke="none" stroke-width="1" fill="none" fill-rule="evenodd">
        <g id="Icon-Set" transform="translate(-172.000000, -35.000000)" fill="#000000">
            <path d="M200.722532,42.76875 C199.022532,45.99875 195.247532,50.97075 192.087532,54.24975 C188.444532,58.18975 179.856532,63.57775 179.856532,63.57775 C179.193532,63.92575 177.353532,63.95175 176.847532,63.44675 L175.016532,61.62075 C174.638532,60.98875 174.468532,60.25675 175.016532,59.79475 L178.679532,57.05475 C179.299532,56.63575 180.004532,56.55075 180.510532,57.05475 L182.767532,59.30475 C183.298532,58.93175 191.776532,53.37575 196.492532,45.72675 L194.181532,43.42175 C193.675532,42.91775 193.761532,42.21375 194.181532,41.59475 L196.928532,37.94275 C197.434532,37.26775 198.254532,37.43775 198.759532,37.94275 L200.591532,39.76875 C201.309532,40.44275 201.101532,42.01375 200.722532,42.76875 L200.722532,42.76875 Z M202.160532,38.46475 L199.282532,35.59475 C198.488532,34.80175 197.199532,34.80175 196.404532,35.59475 L192.087532,41.33475 C191.428532,42.30575 191.293532,43.41175 192.087532,44.20475 L193.849532,45.96175 C192.543532,47.71175 190.975532,49.61975 189.210532,51.37975 C187.214532,53.36975 184.994532,55.17875 182.998532,56.66475 L181.295532,54.96775 C180.501532,54.17475 179.392532,54.30875 178.417532,54.96775 L172.661532,59.27275 C171.696532,59.93775 171.866532,61.34975 172.661532,62.14275 L175.539532,65.01175 C177.129532,66.59775 179.196532,66.08975 181.295532,65.01175 C181.295532,65.01175 187.648532,61.45575 193.087532,56.03175 C198.203532,50.92975 202.160532,44.20475 202.160532,44.20475 C202.985532,41.94175 203.750532,40.04975 202.160532,38.46475 L202.160532,38.46475 Z" id="Fill-179-Copy"></path>
        </g>
    </g>
</svg>