<?xml version="1.0" encoding="UTF-8"?>
<svg width="26px" height="24px" viewBox="0 0 26 24" version="1.1" xmlns="http://www.w3.org/2000/svg" xmlns:xlink="http://www.w3.org/1999/xlink">
    <!-- Generator: Sketch 46.1 (44463) - http://www.bohemiancoding.com/sketch -->
    <title>Icon- Company</title>
    <desc>Created with Sketch.</desc>
    <defs></defs>
    <g id="Page-1" stroke="none" stroke-width="1" fill="none" fill-rule="evenodd">
        <g id="FAQ" transform="translate(-196.000000, -341.000000)" fill-rule="nonzero" fill="#000000">
            <g id="Company-Info" transform="translate(185.000000, 326.000000)">
                <path d="M14.0967742,31.2580645 L13.3225806,31.2580645 L13.3225806,32.8064516 L14.0967742,32.8064516 L14.0967742,31.2580645 Z M14.0967742,28.9354839 L13.3225806,28.9354839 L13.3225806,30.483871 L14.0967742,30.483871 L14.0967742,28.9354839 Z M15.6451613,31.2580645 L14.8709677,31.2580645 L14.8709677,32.8064516 L15.6451613,32.8064516 L15.6451613,31.2580645 Z M15.6451613,28.9354839 L14.8709677,28.9354839 L14.8709677,30.483871 L15.6451613,30.483871 L15.6451613,28.9354839 Z M14.0967742,26.6129032 L13.3225806,26.6129032 L13.3225806,28.1612903 L14.0967742,28.1612903 L14.0967742,26.6129032 Z M15.6451613,26.6129032 L14.8709677,26.6129032 L14.8709677,28.1612903 L15.6451613,28.1612903 L15.6451613,26.6129032 Z M20.2903226,21.9677419 L19.516129,21.9677419 L19.516129,23.516129 L20.2903226,23.516129 L20.2903226,21.9677419 Z M20.2903226,19.6451613 L19.516129,19.6451613 L19.516129,21.1935484 L20.2903226,21.1935484 L20.2903226,19.6451613 Z M21.8387097,21.9677419 L21.0645161,21.9677419 L21.0645161,23.516129 L21.8387097,23.516129 L21.8387097,21.9677419 Z M21.8387097,19.6451613 L21.0645161,19.6451613 L21.0645161,21.1935484 L21.8387097,21.1935484 L21.8387097,19.6451613 Z M20.2903226,17.3225806 L19.516129,17.3225806 L19.516129,18.8709677 L20.2903226,18.8709677 L20.2903226,17.3225806 Z M21.8387097,17.3225806 L21.0645161,17.3225806 L21.0645161,18.8709677 L21.8387097,18.8709677 L21.8387097,17.3225806 Z M23.3870968,21.9677419 L22.6129032,21.9677419 L22.6129032,23.516129 L23.3870968,23.516129 L23.3870968,21.9677419 Z M23.3870968,19.6451613 L22.6129032,19.6451613 L22.6129032,21.1935484 L23.3870968,21.1935484 L23.3870968,19.6451613 Z M24.9354839,21.9677419 L24.1612903,21.9677419 L24.1612903,23.516129 L24.9354839,23.516129 L24.9354839,21.9677419 Z M24.9354839,19.6451613 L24.1612903,19.6451613 L24.1612903,21.1935484 L24.9354839,21.1935484 L24.9354839,19.6451613 Z M23.3870968,17.3225806 L22.6129032,17.3225806 L22.6129032,18.8709677 L23.3870968,18.8709677 L23.3870968,17.3225806 Z M24.9354839,17.3225806 L24.1612903,17.3225806 L24.1612903,18.8709677 L24.9354839,18.8709677 L24.9354839,17.3225806 Z M26.483871,21.9677419 L25.7096774,21.9677419 L25.7096774,23.516129 L26.483871,23.516129 L26.483871,21.9677419 Z M26.483871,19.6451613 L25.7096774,19.6451613 L25.7096774,21.1935484 L26.483871,21.1935484 L26.483871,19.6451613 Z M28.0322581,21.9677419 L27.2580645,21.9677419 L27.2580645,23.516129 L28.0322581,23.516129 L28.0322581,21.9677419 Z M28.0322581,19.6451613 L27.2580645,19.6451613 L27.2580645,21.1935484 L28.0322581,21.1935484 L28.0322581,19.6451613 Z M26.483871,17.3225806 L25.7096774,17.3225806 L25.7096774,18.8709677 L26.483871,18.8709677 L26.483871,17.3225806 Z M28.0322581,17.3225806 L27.2580645,17.3225806 L27.2580645,18.8709677 L28.0322581,18.8709677 L28.0322581,17.3225806 Z M20.2903226,26.6129032 L19.516129,26.6129032 L19.516129,28.1612903 L20.2903226,28.1612903 L20.2903226,26.6129032 Z M20.2903226,24.2903226 L19.516129,24.2903226 L19.516129,25.8387097 L20.2903226,25.8387097 L20.2903226,24.2903226 Z M21.8387097,26.6129032 L21.0645161,26.6129032 L21.0645161,28.1612903 L21.8387097,28.1612903 L21.8387097,26.6129032 Z M21.8387097,24.2903226 L21.0645161,24.2903226 L21.0645161,25.8387097 L21.8387097,25.8387097 L21.8387097,24.2903226 Z M23.3870968,26.6129032 L22.6129032,26.6129032 L22.6129032,28.1612903 L23.3870968,28.1612903 L23.3870968,26.6129032 Z M23.3870968,24.2903226 L22.6129032,24.2903226 L22.6129032,25.8387097 L23.3870968,25.8387097 L23.3870968,24.2903226 Z M24.9354839,26.6129032 L24.1612903,26.6129032 L24.1612903,28.1612903 L24.9354839,28.1612903 L24.9354839,26.6129032 Z M24.9354839,24.2903226 L24.1612903,24.2903226 L24.1612903,25.8387097 L24.9354839,25.8387097 L24.9354839,24.2903226 Z M26.483871,26.6129032 L25.7096774,26.6129032 L25.7096774,28.1612903 L26.483871,28.1612903 L26.483871,26.6129032 Z M26.483871,24.2903226 L25.7096774,24.2903226 L25.7096774,25.8387097 L26.483871,25.8387097 L26.483871,24.2903226 Z M28.0322581,26.6129032 L27.2580645,26.6129032 L27.2580645,28.1612903 L28.0322581,28.1612903 L28.0322581,26.6129032 Z M28.0322581,24.2903226 L27.2580645,24.2903226 L27.2580645,25.8387097 L28.0322581,25.8387097 L28.0322581,24.2903226 Z M20.2903226,28.9354839 L19.516129,28.9354839 L19.516129,30.483871 L20.2903226,30.483871 L20.2903226,28.9354839 Z M21.8387097,28.9354839 L21.0645161,28.9354839 L21.0645161,30.483871 L21.8387097,30.483871 L21.8387097,28.9354839 Z M23.3870968,28.9354839 L22.6129032,28.9354839 L22.6129032,30.483871 L23.3870968,30.483871 L23.3870968,28.9354839 Z M24.9354839,28.9354839 L24.1612903,28.9354839 L24.1612903,30.483871 L24.9354839,30.483871 L24.9354839,28.9354839 Z M26.483871,28.9354839 L25.7096774,28.9354839 L25.7096774,30.483871 L26.483871,30.483871 L26.483871,28.9354839 Z M28.0322581,28.9354839 L27.2580645,28.9354839 L27.2580645,30.483871 L28.0322581,30.483871 L28.0322581,28.9354839 Z M32.6774194,31.2580645 L31.9032258,31.2580645 L31.9032258,32.8064516 L32.6774194,32.8064516 L32.6774194,31.2580645 Z M32.6774194,28.9354839 L31.9032258,28.9354839 L31.9032258,30.483871 L32.6774194,30.483871 L32.6774194,28.9354839 Z M34.2258065,31.2580645 L33.4516129,31.2580645 L33.4516129,32.8064516 L34.2258065,32.8064516 L34.2258065,31.2580645 Z M34.2258065,28.9354839 L33.4516129,28.9354839 L33.4516129,30.483871 L34.2258065,30.483871 L34.2258065,28.9354839 Z M32.6774194,26.6129032 L31.9032258,26.6129032 L31.9032258,28.1612903 L32.6774194,28.1612903 L32.6774194,26.6129032 Z M34.2258065,26.6129032 L33.4516129,26.6129032 L33.4516129,28.1612903 L34.2258065,28.1612903 L34.2258065,26.6129032 Z M28.0322581,32.8064516 L19.516129,32.8064516 L19.516129,32.0322581 L28.0322581,32.0322581 L28.0322581,32.8064516 Z M36.5483871,24.2903226 L36.5483871,39 L11,39 L11,24.2903226 L17.1935484,24.2903226 L17.1935484,15 L30.3548387,15 L30.3548387,24.2903226 L36.5483871,24.2903226 Z M14.8709677,35.9032258 L14.0967742,35.9032258 L14.0967742,38.2258065 L14.8709677,38.2258065 L14.8709677,35.9032258 Z M17.1935484,25.0645161 L11.7741935,25.0645161 L11.7741935,38.2258065 L13.3225806,38.2258065 L13.3225806,35.1290323 L15.6451613,35.1290323 L15.6451613,38.2258065 L17.1935484,38.2258065 L17.1935484,25.0645161 Z M24.9354839,35.1290323 L22.6129032,35.1290323 L22.6129032,38.2258065 L24.9354839,38.2258065 L24.9354839,35.1290323 Z M29.5806452,15.7741935 L17.9677419,15.7741935 L17.9677419,38.2258065 L21.8387097,38.2258065 L21.8387097,34.3548387 L25.7096774,34.3548387 L25.7096774,38.2258065 L29.5806452,38.2258065 L29.5806452,15.7741935 Z M33.4516129,35.9032258 L32.6774194,35.9032258 L32.6774194,38.2258065 L33.4516129,38.2258065 L33.4516129,35.9032258 Z M35.7741935,25.0645161 L30.3548387,25.0645161 L30.3548387,38.2258065 L31.9032258,38.2258065 L31.9032258,35.1290323 L34.2258065,35.1290323 L34.2258065,38.2258065 L35.7741935,38.2258065 L35.7741935,25.0645161 Z" id="Icon--Company"></path>
            </g>
        </g>
    </g>
</svg>
