<?xml version="1.0" encoding="UTF-8"?>
<svg width="24px" height="24px" viewBox="0 0 24 24" version="1.1" xmlns="http://www.w3.org/2000/svg" xmlns:xlink="http://www.w3.org/1999/xlink">
    <!-- Generator: Sketch 46.1 (44463) - http://www.bohemiancoding.com/sketch -->
    <title>Icon- General</title>
    <desc>Created with Sketch.</desc>
    <defs></defs>
    <g id="Page-1" stroke="none" stroke-width="1" fill="none" fill-rule="evenodd">
        <g id="FAQ" transform="translate(-197.000000, -253.000000)" fill="#000000">
            <g id="General-Inquiries" transform="translate(185.000000, 238.000000)">
                <g id="Icon--General" transform="translate(12.000000, 15.000000)">
                    <path d="M11.9916797,0.212501333 C5.49205307,0.212501333 0.216666267,5.496192 0.216666267,11.9958453 C0.216666267,18.5055787 5.49205307,23.7874987 11.9916797,23.7874987 C18.5014139,23.7874987 23.7833336,18.5055787 23.7833336,11.9958453 C23.7833336,5.496192 18.5014139,0.212501333 11.9916795,0.212501333 L11.9916797,0.212501333 Z M11.9916797,1.279168 C12.4967197,1.279168 12.9971195,1.32034133 13.4833331,1.38750133 L13.4833331,5.18749867 C13.0037597,5.08301867 12.5019464,5.02917867 11.9916797,5.02917867 C11.3192797,5.02917867 10.6738131,5.12581867 10.0583464,5.30416533 L10.0583464,1.454168 C10.6859997,1.33993333 11.3307731,1.279168 11.9916797,1.279168 Z M14.5499997,1.58750133 C18.2386931,2.48641333 21.1788539,5.29077867 22.2666936,8.89584533 L18.2416797,8.89584533 C17.4739731,7.36125867 16.1577064,6.14605867 14.5499997,5.512512 L14.5499997,1.58750133 L14.5499997,1.58750133 Z M8.99167973,1.71250133 L8.99167973,5.712512 C7.59109307,6.38352533 6.45119973,7.50781867 5.7583464,8.89584533 L1.73335973,8.89584533 C2.7761864,5.43949867 5.5213064,2.722928 8.99167973,1.71250133 Z M11.9916797,6.09584533 C15.2592264,6.09584533 17.9083464,8.72936533 17.9083464,11.9958453 C17.9083464,15.2623253 15.2581597,17.9041653 11.9916797,17.9041653 C8.72519973,17.9041653 6.09167973,15.263392 6.09167973,11.9958453 C6.09167973,8.72829867 8.72413307,6.09584533 11.9916797,6.09584533 Z M1.47501307,9.962512 L5.33335973,9.962512 C5.13613307,10.6069387 5.02501307,11.2874453 5.02501307,11.9958453 C5.02501307,12.4646453 5.06975973,12.9275253 5.1583464,13.370832 L1.36669307,13.370832 C1.30925293,12.920272 1.28333293,12.4622987 1.28333293,11.9958453 C1.28333293,11.2996053 1.34853307,10.6215253 1.47501307,9.962512 Z M18.6666936,9.962512 L22.5250136,9.962512 C22.6514936,10.6215253 22.7166669,11.2996053 22.7166669,11.9958453 C22.7166669,12.4622987 22.6908003,12.920272 22.6333603,13.370832 L18.8416803,13.370832 C18.9305339,12.927472 18.9750136,12.4647787 18.9750136,11.9958453 C18.9750136,11.2872587 18.8644539,10.6070187 18.6666936,9.962512 Z M1.5583464,14.4374987 L5.46669307,14.4374987 C6.09997307,16.1327253 7.37279973,17.5182453 8.99167973,18.2958453 L8.99167973,22.2874987 C5.3011464,21.212512 2.4338664,18.2146187 1.5583464,14.4374987 Z M18.5333603,14.4374987 L22.4416803,14.4374987 C21.5307469,18.3672587 18.4628003,21.4583253 14.5499997,22.412512 L14.5499997,18.4874987 C16.3833597,17.762592 17.8406664,16.286672 18.5333603,14.4374987 Z M10.0583461,18.6958453 C10.6742928,18.8749653 11.3186395,18.970832 11.9916795,18.970832 C12.5020795,18.970832 13.0036795,18.917312 13.4833328,18.812512 L13.4833328,22.612512 C12.9970128,22.679712 12.4968261,22.720832 11.9916795,22.720832 C11.3307728,22.720832 10.6859995,22.6600853 10.0583461,22.5458453 L10.0583461,18.6958453 Z" id="Shape"></path>
                </g>
            </g>
        </g>
    </g>
</svg>