<?xml version="1.0" encoding="UTF-8"?>
<svg width="17px" height="27px" viewBox="0 0 17 27" version="1.1" xmlns="http://www.w3.org/2000/svg" xmlns:xlink="http://www.w3.org/1999/xlink">
    <!-- Generator: Sketch 46.1 (44463) - http://www.bohemiancoding.com/sketch -->
    <title>Icon- Troubleshooting</title>
    <desc>Created with Sketch.</desc>
    <defs></defs>
    <g id="Page-1" stroke="none" stroke-width="1" fill="none" fill-rule="evenodd">
        <g id="FAQ" transform="translate(-201.000000, -603.000000)" fill-rule="nonzero" fill="#000000">
            <g id="Troubleshooting" transform="translate(185.000000, 590.000000)">
                <g id="Icon--Troubleshooting" transform="translate(16.000000, 13.000000)">
                    <path d="M16.32,16.17 C16.38,15.93 16.29,15.66 16.11,15.48 L5.34,4.71 C5.13,4.5 4.8,4.44 4.5,4.56 C4.23,4.68 4.05,4.95 4.05,5.25 L4.05,20.49 C4.05,20.73 4.17,20.97 4.38,21.12 C4.59,21.27 4.86,21.27 5.07,21.18 L8.37,19.83 L11.16,26.55 C11.28,26.85 11.55,27 11.85,27 C11.94,27 12.03,26.97 12.15,26.94 L14.97,25.77 C15.36,25.62 15.54,25.17 15.39,24.78 L12.6,18.06 L15.9,16.71 C16.11,16.62 16.26,16.41 16.32,16.17 Z M11.31,16.98 C11.13,17.07 10.98,17.19 10.89,17.4 C10.8,17.58 10.8,17.79 10.89,17.97 L13.68,24.69 L12.24,25.29 L9.45,18.57 C9.36,18.39 9.24,18.24 9.03,18.15 C8.94,18.12 8.85,18.09 8.73,18.09 C8.61,18.09 8.52,18.12 8.43,18.15 L5.49,19.38 L5.49,7.08 L14.19,15.78 L11.31,16.98 Z" id="Shape"></path>
                    <path d="M4.8,3 C5.22,3 5.55,2.67 5.55,2.25 L5.55,0.75 C5.55,0.33 5.22,0 4.8,0 C4.38,0 4.05,0.33 4.05,0.75 L4.05,2.25 C4.05,2.67 4.38,3 4.8,3 Z" id="Shape"></path>
                    <path d="M2.58,3.09 L1.29,2.34 C0.93,2.13 0.48,2.25 0.27,2.61 C0.06,2.97 0.18,3.42 0.54,3.63 L1.83,4.38 C1.95,4.44 2.07,4.47 2.19,4.47 C2.46,4.47 2.7,4.35 2.85,4.08 C3.06,3.78 2.94,3.3 2.58,3.09 Z" id="Shape"></path>
                    <path d="M7.41,4.5 C7.53,4.5 7.68,4.47 7.77,4.41 L9.06,3.66 C9.42,3.45 9.54,3 9.33,2.64 C9.12,2.28 8.67,2.16 8.31,2.37 L7.02,3.12 C6.66,3.33 6.54,3.78 6.75,4.14 C6.9,4.38 7.14,4.5 7.41,4.5 Z" id="Shape"></path>
                    <path d="M1.83,6.09 L0.54,6.84 C0.18,7.05 0.06,7.5 0.27,7.86 C0.42,8.1 0.66,8.25 0.93,8.25 C1.05,8.25 1.2,8.22 1.29,8.16 L2.58,7.41 C2.94,7.2 3.06,6.75 2.85,6.39 C2.64,6.03 2.19,5.88 1.83,6.09 Z" id="Shape"></path>
                </g>
            </g>
        </g>
    </g>
</svg>