<?xml version="1.0" encoding="UTF-8"?>
<svg width="164px" height="164px" viewBox="0 0 164 164" version="1.1" xmlns="http://www.w3.org/2000/svg" xmlns:xlink="http://www.w3.org/1999/xlink">
    <!-- Generator: Sketch 46.2 (44496) - http://www.bohemiancoding.com/sketch -->
    <title>20discount</title>
    <desc>Created with Sketch.</desc>
    <defs></defs>
    <g id="✅️---LATEST" stroke="none" stroke-width="1" fill="none" fill-rule="evenodd">
        <g id="Withtokenbar" transform="translate(-687.000000, -1344.000000)">
            <g id="Presalesection" transform="translate(131.000000, 1224.000000)">
                <g id="Icons" transform="translate(0.000000, 120.000000)">
                    <g id="20discount" transform="translate(556.000000, 0.000000)">
                        <circle id="Oval-6" fill="#90C1F1" cx="81.9" cy="81.9" r="81.9"></circle>
                        <path d="M136.353239,35.1018826 L92.9104049,36.0138152 L35.9146226,93.0522307 C34.8284591,94.1383943 34.8284591,95.8769974 35.9146226,96.963161 L81.1368372,142.185377 C82.2230007,143.271541 83.9616037,143.271541 85.0477673,142.185377 L142.086181,85.1895927 L142.998113,41.7486105 C143.042598,39.9080637 142.297482,38.2213592 141.087133,37.0128632 C139.878637,35.8043672 138.191932,35.0573981 136.353239,35.1018826 Z M116.328377,53.3 C118.494465,53.3 120.668074,54.1125812 122.320844,55.7621398 C125.626385,59.061257 125.626385,64.4265449 122.320844,67.7256621 C119.015304,71.0247793 113.682816,71.0247793 110.379156,67.7256621 C107.073615,64.4265449 107.073615,59.061257 110.379156,55.7621398 C112.030046,54.1125812 114.160408,53.3 116.328377,53.3 Z" id="Page-1" fill="#F4F4F4" opacity="0.342787591" transform="translate(89.050000, 89.050000) rotate(-99.000000) translate(-89.050000, -89.050000) "></path>
                        <path d="M135.053239,27.3018826 L91.6104049,28.2138152 L34.6146226,85.2522307 C33.5284591,86.3383943 33.5284591,88.0769974 34.6146226,89.163161 L79.8368372,134.385377 C80.9230007,135.471541 82.6616037,135.471541 83.7477673,134.385377 L140.786181,77.3895927 L141.698113,33.9486105 C141.742598,32.1080637 140.997482,30.4213592 139.787133,29.2128632 C138.578637,28.0043672 136.891932,27.2573981 135.053239,27.3018826 Z M115.028377,45.5 C117.194465,45.5 119.368074,46.3125812 121.020844,47.9621398 C124.326385,51.261257 124.326385,56.6265449 121.020844,59.9256621 C117.715304,63.2247793 112.382816,63.2247793 109.079156,59.9256621 C105.773615,56.6265449 105.773615,51.261257 109.079156,47.9621398 C110.730046,46.3125812 112.860408,45.5 115.028377,45.5 Z" id="Page-1" fill="#0086CB" transform="translate(87.750000, 81.250000) rotate(-99.000000) translate(-87.750000, -81.250000) "></path>
                        <text id="15%" transform="translate(93.600000, 82.200000) rotate(36.000000) translate(-93.600000, -82.200000) " font-family="Helvetica" font-size="31.2" font-weight="normal" fill="#F4F4F4">
                            <tspan x="62.3771484" y="93.7">15%</tspan>
                        </text>
                    </g>
                </g>
            </g>
        </g>
    </g>
</svg>