<?xml version="1.0" encoding="UTF-8"?>
<svg width="18px" height="29px" viewBox="0 0 18 29" version="1.1" xmlns="http://www.w3.org/2000/svg" xmlns:xlink="http://www.w3.org/1999/xlink">
    <!-- Generator: Sketch 46.1 (44463) - http://www.bohemiancoding.com/sketch -->
    <title>Icon- Pre-Sale</title>
    <desc>Created with Sketch.</desc>
    <defs></defs>
    <g id="Page-1" stroke="none" stroke-width="1" fill="none" fill-rule="evenodd">
        <g id="FAQ" transform="translate(-200.000000, -692.000000)" fill-rule="nonzero" fill="#000000">
            <g id="Pre-Sale" transform="translate(184.000000, 678.000000)">
                <g id="Icon--Pre-Sale" transform="translate(16.000000, 14.000000)">
                    <path d="M17.8570406,11.5900734 C18.0527763,11.3004443 18.0527763,10.9142722 17.8244179,10.6246431 C17.5960596,10.335014 17.2045882,10.2384709 16.878362,10.367195 L10.8105553,12.7485898 L13.6813456,1.00252096 C13.7792134,0.616348837 13.5834777,0.230176713 13.2246289,0.0692716609 C12.8657801,-0.0916333911 12.4416861,0.0370906505 12.2133278,0.358900754 L0.142959442,18.2837235 C-0.0527762611,18.5733526 -0.0527762611,18.9595248 0.175582059,19.2491539 C0.403940379,19.5387829 0.795411785,19.635326 1.12163796,19.4744209 L6.92846381,17.1895692 L4.2534092,28.0023887 C4.15554135,28.3885608 4.35127706,28.7747329 4.71012584,28.935638 C4.8079937,28.967819 4.93848416,29 5.03635202,29 C5.29733295,29 5.55831389,28.871276 5.68880436,28.6460089 L17.8570406,11.5900734 Z M8.91844346,16.0310528 C8.98368869,15.7414237 8.88582084,15.4196136 8.65746252,15.2265276 C8.49434943,15.0978035 8.33123635,15.0334415 8.13550065,15.0334415 C8.03763279,15.0334415 7.93976494,15.0656225 7.84189709,15.0978035 L2.98112713,17.0286641 L11.0715362,5.08950928 L8.88582084,13.9392871 C8.82057561,14.2289162 8.91844346,14.5507263 9.14680178,14.7438124 C9.3751601,14.9368985 9.70138627,15.0012605 9.99498982,14.8725364 L14.9862502,12.9094948 L6.89584119,24.2372105 L8.91844346,16.0310528 Z" id="Shape"></path>
                </g>
            </g>
        </g>
    </g>
</svg>