<?xml version="1.0" encoding="UTF-8"?>
<svg width="24px" height="24px" viewBox="0 0 24 24" version="1.1" xmlns="http://www.w3.org/2000/svg" xmlns:xlink="http://www.w3.org/1999/xlink">
    <!-- Generator: Sketch 46.1 (44463) - http://www.bohemiancoding.com/sketch -->
    <title>Icon- Token</title>
    <desc>Created with Sketch.</desc>
    <defs></defs>
    <g id="Page-1" stroke="none" stroke-width="1" fill="none" fill-rule="evenodd">
        <g id="FAQ" transform="translate(-197.000000, -429.000000)" fill="#000000">
            <g id="Token-Issuant-Program" transform="translate(185.000000, 414.000000)">
                <g id="Icon--Token" transform="translate(12.000000, 15.000000)">
                    <path d="M12,0 C5.36,0 0,5.36 0,12 C0,18.64 5.36,24 12,24 C18.64,24 24,18.64 24,12 C24,5.36 18.64,0 12,0 Z M12,22.6666667 C6.10666667,22.6666667 1.33333333,17.8933333 1.33333333,12 C1.33333333,6.10666667 6.10666667,1.33333333 12,1.33333333 C17.8933333,1.33333333 22.6666667,6.10666667 22.6666667,12 C22.6666667,17.8933333 17.8933333,22.6666667 12,22.6666667 Z" id="Shape" fill-rule="nonzero"></path>
                    <text id="M" font-family="Helvetica" font-size="15" font-weight="normal">
                        <tspan x="6" y="17">M</tspan>
                    </text>
                </g>
            </g>
        </g>
    </g>
</svg>