<?xml version="1.0" encoding="UTF-8"?>
<svg width="488px" height="299px" viewBox="0 0 488 299" version="1.1" xmlns="http://www.w3.org/2000/svg" xmlns:xlink="http://www.w3.org/1999/xlink">
    <!-- Generator: Sketch 46.1 (44463) - http://www.bohemiancoding.com/sketch -->
    <title>BOUNTY_DRAWING</title>
    <desc>Created with Sketch.</desc>
    <defs></defs>
    <g id="LATEST" stroke="none" stroke-width="1" fill="none" fill-rule="evenodd">
        <g id="beta_reduxSüp3r_F" transform="translate(-669.000000, -4475.000000)">
            <g id="INCENTIVIZED_SECTION" transform="translate(0.000000, 3949.000000)">
                <g id="BOUNTY_DRAWING" transform="translate(667.000000, 523.000000)">
                    <g>
                        <g id="Saucer" transform="translate(14.541284, 54.287462)" stroke="#000000">
                            <path d="M40.0370031,37.6134557 C36.8379205,38.0981651 32.5724771,37.32263 28.2100917,35.383792 C23.8477064,33.4449541 20.4547401,30.6336391 18.612844,27.8223242" id="Stroke-1"></path>
                            <path d="M55.6446483,17.3525994 C64.5633028,23.5568807 69.6042813,29.858104 68.053211,33.6388379 C65.6296636,39.3584098 49.0525994,37.32263 30.9244648,28.9856269 C12.7963303,20.6486239 4.4408921e-16,9.30642202 2.4235474,3.58685015 C3.97461774,-0.193883792 11.8269113,-0.581651376 22.1027523,2.03577982" id="Stroke-3"></path>
                            <path d="M2.5204893,3.39296636 L0.678593272,7.85229358 C-1.74495413,13.5718654 10.9544343,24.9140673 29.0825688,33.2510703 C47.2107034,41.5880734 63.7877676,43.6238532 66.211315,37.9042813 L68.053211,33.541896" id="Stroke-5"></path>
                            <path d="M49.7311927,11.3422018 C49.8281346,11.4391437 49.9250765,11.5360856 50.0220183,11.6330275" id="Stroke-7"></path>
                            <path d="M50.0220183,11.6330275 C54.8691131,15.3168196 57.4865443,19.1944954 56.5171254,21.6180428 C54.8691131,25.4957187 45.0779817,24.7201835 34.7051988,19.8730887 C24.3324159,15.0259939 17.0617737,8.14311927 18.7097859,4.26544343 C19.7761468,1.74495413 24.3324159,1.16330275 30.3428135,2.5204893" id="Stroke-9"></path>
                            <path d="M50.5067278,14.3474006 C49.5373089,16.6740061 43.7207951,16.1892966 37.5165138,13.2810398 C31.3122324,10.3727829 27.046789,6.30122324 28.016208,3.97461774 C28.9856269,1.64801223 34.8021407,2.13272171 41.006422,5.04097859 C47.2107034,7.85229358 51.4761468,12.0207951 50.5067278,14.3474006 Z" id="Stroke-11"></path>
                        </g>
                        <g id="Marks-design" transform="translate(169.648318, 112.452599)" stroke="#FFFFFF">
                            <path d="M69.6042813,24.0415902 L71.0584098,23.6538226" id="Stroke-1_1_"></path>
                            <polyline id="Stroke-2" points="61.6550459 24.5262997 65.241896 30.5366972 78.5229358 32.4755352 79.4923547 28.2100917"></polyline>
                            <polyline id="Stroke-3_1_" points="61.6550459 24.5262997 69.6042813 23.8477064 71.833945 26.4651376 69.2165138 31.1183486"></polyline>
                            <polyline id="Stroke-4" stroke-linejoin="bevel" points="78.5229358 32.5724771 89.2834862 54.1905199 91.9978593 55.3538226 85.793578 57.8743119 77.1657492 58.2620795 76.6810398 57.1957187 78.2321101 55.935474 49.9250765 29.6642202 10.6636086 23.6538226 0.193883792 20.0669725 0.290825688 15.8015291 8.91865443 14.2504587 48.2770642 21.8119266 49.440367 1.74495413 48.0831804 0.872477064 47.9862385 0.096941896 51.4761468 0.48470948 57.8743119 3.00519878 57.0018349 3.87767584 71.0584098 23.6538226 76.487156 24.6232416"></polyline>
                            <polyline id="Stroke-6" stroke-linejoin="bevel" points="68.4409786 46.9198777 69.2165138 65.5327217 70.3798165 66.9868502 63.4969419 68.3440367 57.0018349 66.9868502 57.2926606 65.8235474 59.5223242 64.7571865 48.9556575 32.1847095 53.8996942 33.1541284"></polyline>
                            <polyline id="Stroke-9_1_" stroke-linejoin="bevel" points="48.6648318 12.3116208 44.3024465 9.98501529 44.8840979 9.40336391 37.2256881 8.24006116 32.8633028 8.82171254 33.0571865 9.6941896 34.511315 10.0819572 45.2718654 21.3272171"></polyline>
                            <polyline id="Stroke-10" points="0.193883792 20.0669725 11.148318 28.3070336 50.0220183 35.383792"></polyline>
                            <path d="M71.3492355,20.4547401 L93.6458716,25.7865443 C93.6458716,25.7865443 96.069419,27.4345566 97.1357798,29.2764526 C98.5899083,31.7969419 97.7174312,35.0929664 97.7174312,35.0929664 L94.2275229,38.4859327 L82.6914373,40.6186544 L84.4363914,37.2256881 L79.4923547,28.2100917 L71.833945,26.4651376 L65.1449541,30.6336391" id="Stroke-12" stroke-linejoin="bevel"></path>
                            <polyline id="Stroke-14" points="76.487156 24.6232416 71.3492355 20.4547401 70.4767584 22.4905199"></polyline>
                            <polyline id="Stroke-16" stroke-linejoin="bevel" points="54.2874618 48.8587156 30.730581 43.5269113 29.858104 42.0727829 30.1489297 38.7767584 51.8639144 41.4911315"></polyline>
                            <path d="M29.858104,42.0727829 L53.3180428,45.4657492" id="Stroke-18" stroke-linejoin="bevel"></path>
                            <polyline id="Stroke-20" stroke-linejoin="bevel" points="43.1391437 19.0006116 27.3376147 15.3168196 26.5620795 14.3474006 26.6590214 12.6993884 38.3889908 14.2504587"></polyline>
                            <path d="M26.5620795,14.3474006 L40.9094801,16.5770642" id="Stroke-22" stroke-linejoin="bevel"></path>
                        </g>
                        <g id="Marks-design-Copy" transform="translate(354.807339, 188.067278)" stroke="#FFFFFF">
                            <path d="M69.6042813,24.0415902 L71.0584098,23.6538226" id="Stroke-1_1_"></path>
                            <polyline id="Stroke-2" points="61.6550459 24.5262997 65.241896 30.5366972 78.5229358 32.4755352 79.4923547 28.2100917"></polyline>
                            <polyline id="Stroke-3_1_" points="61.6550459 24.5262997 69.6042813 23.8477064 71.833945 26.4651376 69.2165138 31.1183486"></polyline>
                            <polyline id="Stroke-4" stroke-linejoin="bevel" points="78.5229358 32.5724771 89.2834862 54.1905199 91.9978593 55.3538226 85.793578 57.8743119 77.1657492 58.2620795 76.6810398 57.1957187 78.2321101 55.935474 49.9250765 29.6642202 10.6636086 23.6538226 0.193883792 20.0669725 0.290825688 15.8015291 8.91865443 14.2504587 48.2770642 21.8119266 49.440367 1.74495413 48.0831804 0.872477064 47.9862385 0.096941896 51.4761468 0.48470948 57.8743119 3.00519878 57.0018349 3.87767584 71.0584098 23.6538226 76.487156 24.6232416"></polyline>
                            <polyline id="Stroke-6" stroke-linejoin="bevel" points="68.4409786 46.9198777 69.2165138 65.5327217 70.3798165 66.9868502 63.4969419 68.3440367 57.0018349 66.9868502 57.2926606 65.8235474 59.5223242 64.7571865 48.9556575 32.1847095 53.8996942 33.1541284"></polyline>
                            <polyline id="Stroke-9_1_" stroke-linejoin="bevel" points="48.6648318 12.3116208 44.3024465 9.98501529 44.8840979 9.40336391 37.2256881 8.24006116 32.8633028 8.82171254 33.0571865 9.6941896 34.511315 10.0819572 45.2718654 21.3272171"></polyline>
                            <polyline id="Stroke-10" points="0.193883792 20.0669725 11.148318 28.3070336 50.0220183 35.383792"></polyline>
                            <path d="M71.3492355,20.4547401 L93.6458716,25.7865443 C93.6458716,25.7865443 96.069419,27.4345566 97.1357798,29.2764526 C98.5899083,31.7969419 97.7174312,35.0929664 97.7174312,35.0929664 L94.2275229,38.4859327 L82.6914373,40.6186544 L84.4363914,37.2256881 L79.4923547,28.2100917 L71.833945,26.4651376 L65.1449541,30.6336391" id="Stroke-12" stroke-linejoin="bevel"></path>
                            <polyline id="Stroke-14" points="76.487156 24.6232416 71.3492355 20.4547401 70.4767584 22.4905199"></polyline>
                            <polyline id="Stroke-16" stroke-linejoin="bevel" points="54.2874618 48.8587156 30.730581 43.5269113 29.858104 42.0727829 30.1489297 38.7767584 51.8639144 41.4911315"></polyline>
                            <path d="M29.858104,42.0727829 L53.3180428,45.4657492" id="Stroke-18" stroke-linejoin="bevel"></path>
                            <polyline id="Stroke-20" stroke-linejoin="bevel" points="43.1391437 19.0006116 27.3376147 15.3168196 26.5620795 14.3474006 26.6590214 12.6993884 38.3889908 14.2504587"></polyline>
                            <path d="M26.5620795,14.3474006 L40.9094801,16.5770642" id="Stroke-22" stroke-linejoin="bevel"></path>
                        </g>
                        <g id="Jacks-design" transform="translate(44.758033, 170.226562) rotate(-8.000000) translate(-44.758033, -170.226562) translate(4.758033, 134.726562)" stroke="#FFFFFF">
                            <path d="M70.895842,26.7975427 L72.4469123,26.7975427" id="Stroke-1_2_"></path>
                            <polyline id="Stroke-2_1_" points="78.8450774 36.8794998 65.4670958 33.001824 62.6557808 26.3128332"></polyline>
                            <polygon id="Stroke-3_2_" points="51.9921722 31.6446375 10.9857502 18.1697139 0.903793025 13.0317934 1.67932819 8.76634999 10.5979826 8.37858241 62.6557808 26.3128332 70.895842 26.7975427 72.737738 29.7057995 69.4417135 34.0681849"></polygon>
                            <polyline id="Stroke-5_1_" stroke-linejoin="bevel" points="51.7013465 30.190509 56.1606738 66.6406619 53.7371264 67.4161971 53.3493588 68.5794998 59.7475239 70.8091634 66.9212242 70.4213959 65.9518053 68.7733836 68.957004 53.9412735 77.1970652 46.4767475 79.9114383 31.5476956 77.6817747 28.6394387 72.3499704 26.7975427 64.1099092 18.1697139 55.6759643 5.76115121 56.6453832 4.98561604 50.5380438 1.59264968 45.8848328 0.526288827 45.8848328 1.301824 48.3083802 2.56206864 50.7319276 22.0473897"></polyline>
                            <polyline id="Stroke-8" stroke-linejoin="bevel" points="54.1248939 49.0941787 33.8640377 42.8898974 31.731316 39.3999891 32.5068511 36.3947904 52.9615912 41.8235365"></polyline>
                            <polyline id="Stroke-9_2_" points="50.2472181 17.4911206 36.4814689 11.8684907 34.6395728 8.76634999 35.1242823 6.43974448 49.4716829 11.7715488"></polyline>
                            <polyline id="Stroke-10_1_" points="0.903793025 13.0317934 11.179634 23.0168087 52.4768817 37.0733836"></polyline>
                            <path d="M65.4670958,33.001824 L72.8346799,29.8027414" id="Stroke-12_1_" stroke-linejoin="bevel"></path>
                            <path d="M31.731316,39.3999891 L53.6401845,45.7012124" id="Stroke-13" stroke-linejoin="bevel"></path>
                            <path d="M34.6395728,8.76634999 L49.7625086,14.4859219" id="Stroke-14_1_"></path>
                        </g>
                        <text id="WINNER" font-family=".AppleSystemUIFont" font-size="11" font-weight="normal" letter-spacing="0.300000012" fill="#FFFFFF">
                            <tspan x="386" y="11"> WINNER</tspan>
                        </text>
                        <text id="ROUND-1" font-family=".AppleSystemUIFont" font-size="11" font-weight="normal" letter-spacing="0.300000012" fill="#FFFFFF">
                            <tspan x="28" y="11">ROUND 1</tspan>
                        </text>
                        <text id="ROUND-2" font-family=".AppleSystemUIFont" font-size="11" font-weight="normal" letter-spacing="0.300000012" fill="#FFFFFF">
                            <tspan x="207" y="11">ROUND 2</tspan>
                        </text>
                        <g id="Group-16" transform="translate(242.000000, 96.000000)">
                            <g stroke-width="1" fill-rule="evenodd" transform="translate(36.354740, 6.941896)" id="Wins-+2" font-size="10" font-family=".AppleSystemUIFont" letter-spacing="0.272727281" fill="#FFFFFF" font-weight="normal">
                                <text>
                                    <tspan x="0.383792049" y="10.3883792">Wins</tspan>
                                    <tspan x="0.383792049" y="22.3883792">+2</tspan>
                                </text>
                            </g>
                            <path d="M16.5,32 C25.0604136,32 32,25.0604136 32,16.5 C32,7.93958638 25.0604136,1 16.5,1 C7.93958638,1 1,7.93958638 1,16.5 C1,20.2352209 2.32122465,23.6618532 4.52182385,26.3380469 C7.36457817,29.7951786 11.6748073,32 16.5,32 Z" id="Oval" stroke="#F9AD07" stroke-width="1" fill="#F9AD07" fill-rule="evenodd"></path>
                            <text id="MTX" font-family="Helvetica" font-size="12" font-weight="normal" fill="#FFFFFF">
                                <tspan x="4" y="21">MTX</tspan>
                            </text>
                        </g>
                        <g id="Group-16-Copy" transform="translate(426.000000, 174.000000)">
                            <g stroke-width="1" fill-rule="evenodd" transform="translate(36.544343, 6.495413)" id="Wins-+5" font-size="10" font-family=".AppleSystemUIFont" letter-spacing="0.272727281" fill="#FFFFFF" font-weight="normal">
                                <text>
                                    <tspan x="0.383792049" y="10.3883792">Wins</tspan>
                                    <tspan x="0.383792049" y="22.3883792">+5</tspan>
                                </text>
                            </g>
                            <path d="M16.5,32 C25.0604136,32 32,25.0604136 32,16.5 C32,7.93958638 25.0604136,1 16.5,1 C7.93958638,1 1,7.93958638 1,16.5 C1,20.2352209 2.32122465,23.6618532 4.52182385,26.3380469 C7.36457817,29.7951786 11.6748073,32 16.5,32 Z" id="Oval" stroke="#F9AD07" stroke-width="1" fill="#F9AD07" fill-rule="evenodd"></path>
                            <text id="MTX" font-family="Helvetica" font-size="12" font-weight="normal" fill="#FFFFFF">
                                <tspan x="4" y="21">MTX</tspan>
                            </text>
                        </g>
                        <g id="Andrews-design" transform="translate(226.897211, 271.474505) rotate(-14.000000) translate(-226.897211, -271.474505) translate(183.397211, 235.974505)" stroke="#000000">
                            <path d="M65.1859695,28.3948081 L66.8339817,28.3948081" id="Stroke-1_3_"></path>
                            <polyline id="Stroke-2_2_" points="74.1046239 39.5431262 59.1755719 35.2776828 56.0734313 27.8131568"></polyline>
                            <polyline id="Stroke-3_3_" points="56.0734313 27.8131568 65.1859695 28.3948081 67.3186912 31.6908326 63.6348991 36.4409855"></polyline>
                            <polyline id="Stroke-4_1_" points="23.2101285 44.0993953 21.6590582 44.1963372 21.7560001 45.1657562 34.0676209 48.6556644 33.3890276 47.2984779 31.3532478 28.2978663 43.7618105 32.1755421 48.2211377 65.4266124 45.2159389 65.2327286 45.2159389 66.6868571 60.2419328 70.2737072 59.07863 68.4318112 63.0532478 58.6406797 72.2627279 50.3036766 75.2679267 33.6296705 72.8443793 30.3336461 66.8339817 28.3948081 57.7214435 18.7975604 48.2211377 4.93486931 49.3844404 4.06239225 38.9147157 0.669425885 38.9147157 1.54190295 40.2719022 2.12355433 42.6954496 23.1599458 30.2868869 18.7006185 28.8327585 6.29205585 29.9960612 5.80734637 19.5263365 2.60826381 19.5263365 3.48074087 20.6896392 4.25627604 21.9498839 16.7617806 1.68902758 12.3993953 0.816550518 17.1495482 22.2407095 25.8743189 23.2101285 44.0993953"></polyline>
                            <path d="M32.1287829,35.5685085 L44.7312294,39.8339519" id="Stroke-6_1_"></path>
                            <path d="M0.816550518,17.1495482 L22.6284771,32.272484" id="Stroke-7_1_"></path>
                            <path d="M59.1755719,35.2776828 L67.3186912,31.6908326" id="Stroke-9_3_" stroke-linejoin="bevel"></path>
                            <polyline id="Stroke-10_2_" stroke-linejoin="bevel" points="72.0688441 50.4006185 86.125419 45.0688143 85.7376514 37.2165207 75.2679267 33.6296705"></polyline>
                            <polyline id="Stroke-12_2_" stroke-linejoin="bevel" points="72.8443793 30.3336461 82.441627 33.9204962 85.7376514 37.2165207"></polyline>
                        </g>
                        <path d="M99.3654434,87.7324159 L150.744648,132.325688" id="Line-2" stroke="#979797" stroke-linecap="square"></path>
                        <path d="M99.3654434,133.295107 L150.744648,177.888379" id="Line-2-Copy-2" stroke="#979797" stroke-linecap="square" transform="translate(125.055046, 155.591743) scale(1, -1) translate(-125.055046, -155.591743) "></path>
                        <circle id="Oval-3" fill="#F9AD07" cx="150.259939" cy="132.810398" r="2.90825688"></circle>
                        <circle id="Oval-3-Copy" fill="#3A3186" cx="98.8807339" cy="87.2477064" r="2.90825688"></circle>
                        <circle id="Oval-3-Copy-2" fill="#3A3186" cx="98.8807339" cy="178.373089" r="2.90825688"></circle>
                        <path d="M285.978593,163.347095 L337.357798,207.940367" id="Line-2-Copy-4" stroke="#979797" stroke-linecap="square"></path>
                        <path d="M285.978593,208.909786 L337.357798,253.503058" id="Line-2-Copy-3" stroke="#979797" stroke-linecap="square" transform="translate(311.668196, 231.206422) scale(1, -1) translate(-311.668196, -231.206422) "></path>
                        <circle id="Oval-3-Copy-5" fill="#F9AD07" cx="336.873089" cy="208.425076" r="2.90825688"></circle>
                        <circle id="Oval-3-Copy-4" fill="#3A3186" cx="285.493884" cy="162.862385" r="2.90825688"></circle>
                        <circle id="Oval-3-Copy-3" fill="#3A3186" cx="285.493884" cy="253.987768" r="2.90825688"></circle>
                    </g>
                </g>
            </g>
        </g>
    </g>
</svg>