<?xml version="1.0" encoding="UTF-8"?>
<svg width="1280px" height="802px" viewBox="0 0 1280 802" version="1.1" xmlns="http://www.w3.org/2000/svg" xmlns:xlink="http://www.w3.org/1999/xlink">
    <!-- Generator: Sketch 46.2 (44496) - http://www.bohemiancoding.com/sketch -->
    <title>bg</title>
    <desc>Created with Sketch.</desc>
    <defs>
        <linearGradient x1="3.42386756%" y1="84.1117491%" x2="100%" y2="50%" id="linearGradient-1">
            <stop stop-color="#5719ED" offset="0%"></stop>
            <stop stop-color="#341887" offset="100%"></stop>
        </linearGradient>
    </defs>
    <g id="✅️---LATEST" stroke="none" stroke-width="1" fill="none" fill-rule="evenodd">
        <g id="beta_reduxSüp3r_J">
            <g id="bg" transform="translate(0.000000, -186.000000)">
                <g id="Group-23">
                    <g id="Group-22">
                        <path d="M0,59 L1280,59 L1280,976.965022 C1136.66667,941.633035 1010.33333,924.633683 901,925.966965 C737,927.966889 626,985.964679 380,987.964603 C216,989.297886 89.3333333,952.965937 0,878.968756 L0,59 Z" id="Rectangle-7-Copy-3" fill-opacity="0.799999952" fill="url(#linearGradient-1)"></path>
                        <path d="M0,40 L1280,40 L1280,957.965022 C1136.66667,922.633035 1010.33333,905.633683 901,906.966965 C737,908.966889 626,966.964679 380,968.964603 C216,970.297886 89.3333333,933.965937 0,859.968756 L0,40 Z" id="Rectangle-7-Copy" fill-opacity="0.100000001" fill="#000000"></path>
                        <path d="M0,0 L1280,0 L1280,917.965022 C1136.66667,882.633035 1010.33333,865.633683 901,866.966965 C737,868.966889 626,926.964679 380,928.964603 C216,930.297886 89.3333333,893.965937 0,819.968756 L0,0 Z" id="Rectangle-7-Copy-2" fill-opacity="0.119999997" fill="#000000"></path>
                    </g>
                </g>
            </g>
        </g>
    </g>
</svg>