<?xml version="1.0" encoding="UTF-8"?>
<svg width="2400px" height="1500px" viewBox="0 0 2400 1500" version="1.1" xmlns="http://www.w3.org/2000/svg" xmlns:xlink="http://www.w3.org/1999/xlink">
    <!-- Generator: Sketch 46.2 (44496) - http://www.bohemiancoding.com/sketch -->
    <title>purplewavebig</title>
    <desc>Created with Sketch.</desc>
    <defs>
        <linearGradient x1="3.42386756%" y1="84.1117491%" x2="100%" y2="50%" id="linearGradient-1">
            <stop stop-color="#5719ED" offset="0%"></stop>
            <stop stop-color="#341887" offset="100%"></stop>
        </linearGradient>
        <linearGradient x1="57.0390602%" y1="43.4751673%" x2="57.0390582%" y2="-30.8489951%" id="linearGradient-2">
            <stop stop-color="#422E78" offset="0%"></stop>
            <stop stop-color="#6B3FD6" offset="100%"></stop>
        </linearGradient>
    </defs>
    <g id="Symbols" stroke="none" stroke-width="1" fill="none" fill-rule="evenodd">
        <g id="purplewavebig">
            <path d="M0,0 L2400,0 L2400,1482.18249 C2115.75115,1444.00365 1952.91346,1422.16868 1911.48692,1416.67759 C1905.13074,1415.83508 1899.82815,1415.13484 1895.57915,1414.57689 C1885.62672,1413.26998 1877.76265,1412.24689 1871.98693,1411.5076 C1863.17426,1410.37958 1856.14425,1409.4968 1850.89691,1408.85928 C1845.0351,1408.1471 1839.99603,1407.55078 1835.7797,1407.07031 C1824.58507,1405.79465 1815.45101,1404.82304 1808.37751,1404.15549 C1799.19413,1403.28882 1791.23189,1402.61949 1784.4908,1402.14751 C1770.21386,1401.1479 1757.73093,1400.49687 1747.04201,1400.19441 C1737.1424,1399.91429 1727.68507,1399.76021 1718.67,1399.73219 C1708.83373,1399.70161 1699.06873,1399.73722 1689.375,1399.83902 C1679.73395,1399.94026 1670.1906,1400.13039 1660.73406,1400.40382 C1651.48944,1400.67112 1642.3278,1401.01804 1633.23898,1401.43936 C1621.6574,1401.97625 1610.19406,1402.63395 1598.82798,1403.4017 C1590.37121,1403.97293 1581.96828,1404.60508 1573.61053,1405.29372 C1565.79559,1405.93763 1558.02016,1406.63093 1550.27717,1407.36998 C1539.83208,1408.36694 1529.44602,1409.44717 1519.10162,1410.60175 C1511.24535,1411.47862 1503.4131,1412.39839 1495.59728,1413.35714 C1486.83806,1414.43162 1478.09947,1415.55507 1469.3708,1416.72199 C1461.73404,1417.74294 1454.10488,1418.79717 1446.47615,1419.881 C1436.16232,1421.34631 1425.84928,1422.86573 1415.51931,1424.43017 C1224.38267,1453.37719 1027.44994,1497.73792 712.5,1499.94285 C405,1502.09562 167.5,1443.43262 0,1323.95386 L0,0 Z" id="Rectangle-7-Copy-3" fill-opacity="0.799999952" fill="url(#linearGradient-1)"></path>
            <path d="M0,0 L2400,0 L2400,1451.86875 C2131.25,1395.98709 1894.375,1369.10063 1689.375,1371.20937 C1381.875,1374.37248 1173.75,1466.10275 712.5,1469.26587 C405,1471.37461 167.5,1413.91139 0,1296.87622 L0,0 Z" id="Rectangle-7-Copy" fill-opacity="0.100000001" fill="#000000"></path>
            <path d="M0,0 L2400,0 L2400,1388.05034 C2131.25,1334.62502 1894.375,1308.92038 1689.375,1310.93643 C1381.875,1313.96051 1173.75,1401.65868 712.5,1404.68275 C405,1406.6988 167.5,1351.76144 0,1239.87067 L0,0 Z" id="Rectangle-7-Copy-2" fill-opacity="0.119999997" fill="#000000"></path>
            <path d="M0,0 L2400,0 L2400,1395.04844 C2121.38376,1348.65376 1958.42934,1321.51905 1911.13675,1313.64431 C1899.17694,1311.65287 1889.83255,1310.09696 1883.10357,1308.97657 C1873.38894,1307.35906 1865.64744,1306.07013 1859.87907,1305.10978 C1850.30888,1303.51647 1842.72232,1302.25352 1837.11941,1301.32091 C1829.00278,1299.96989 1822.4258,1298.8753 1817.38846,1298.03714 C1808.63979,1296.58146 1801.60757,1295.41171 1796.29179,1294.52789 C1787.67801,1293.09575 1780.73698,1291.94236 1775.46869,1291.06774 C1767.50553,1289.74572 1760.96492,1288.66094 1755.84689,1287.81341 C1747.42918,1286.41946 1740.43201,1285.26276 1734.85537,1284.3433 C1723.71199,1282.50602 1714.62637,1281.0134 1707.5985,1279.86543 C1695.13541,1277.82964 1685.00397,1276.18665 1677.20418,1274.93645 C1660.15528,1272.20373 1647.0979,1270.15128 1638.03205,1268.77908 C1630.08178,1267.57573 1623.27195,1266.57101 1617.60257,1265.76492 C1601.37602,1263.45778 1588.4978,1261.75952 1578.96792,1260.67014 C1568.23771,1259.44355 1559.04676,1258.52032 1551.39507,1257.90046 C1535.19222,1256.58788 1521.38203,1255.82521 1509.9645,1255.61244 C1497.81693,1255.38606 1486.55406,1255.4304 1476.17589,1255.74544 C1468.36495,1255.98256 1460.68132,1256.29072 1453.125,1256.66993 C1436.79897,1257.48925 1421.16327,1258.47545 1406.14289,1259.6111 C1391.75114,1260.69923 1377.9243,1261.92456 1364.59637,1263.27178 C1358.53788,1263.88419 1352.58248,1264.52178 1346.72398,1265.18312 C1336.3098,1266.35874 1326.2018,1267.60939 1316.36518,1268.92699 C1307.09834,1270.16827 1298.07234,1271.46898 1289.25809,1272.82234 C1277.53384,1274.62252 1266.18422,1276.51587 1255.14075,1278.48649 C1245.00348,1280.29541 1235.12417,1282.16943 1225.44984,1284.09625 C1216.40746,1285.89721 1207.54414,1287.7443 1198.81664,1289.62747 C1194.83536,1290.48653 1190.88234,1291.3531 1186.95347,1292.22622 C1178.29163,1294.15117 1169.74719,1296.10797 1161.27615,1298.08642 C1151.47706,1300.37504 1141.77619,1302.69262 1132.10541,1305.02333 C1124.17837,1306.93379 1116.27156,1308.85308 1108.34745,1310.77248 C1099.81952,1312.83815 1091.27155,1314.90394 1082.6568,1316.95901 C1066.81008,1320.73927 1050.73735,1324.48323 1034.14754,1328.12328 C1017.86596,1331.69571 1001.08633,1335.16805 983.533514,1338.47642 C976.398333,1339.82127 969.135389,1341.13902 961.726201,1342.42538 C953.169118,1343.91104 944.416967,1345.35482 935.441276,1346.75013 C907.403865,1351.10867 877.185259,1354.99416 843.91767,1358.20508 C807.313376,1361.73805 767.017808,1364.45435 721.875,1366.0855 C484.375,1374.66711 243.75,1330.68634 0,1234.1432 L0,0 Z" id="Rectangle-7" fill="url(#linearGradient-2)"></path>
        </g>
    </g>
</svg>