<svg xmlns="http://www.w3.org/2000/svg" width="1280" height="931" viewBox="0 0 1280 931">
    <g fill="none" fill-rule="evenodd">
        <path fill="#DCE6EC" fill-opacity=".8" d="M0 55.596h1280v865.006c-143.333-33.294-269.667-49.313-379-48.056-164 1.884-275 56.536-521 58.42C216 932.224 89.333 897.988 0 828.26V55.596z"/>
        <path fill="#8C9EAE" fill-opacity=".326" d="M0 37.692h1280v865.006c-143.333-33.294-269.667-49.312-379-48.056-164 1.884-275 56.536-521 58.42C216 914.32 89.333 880.084 0 810.356V37.692z"/>
        <path fill="#8C9EAE" fill-opacity=".509" d="M0 0h1280v865.006c-143.333-33.294-269.667-49.313-379-48.056-164 1.884-275 56.536-521 58.42-164 1.257-290.667-32.979-380-102.707V0z"/>
    </g>
</svg>
